<?xml version="1.0" standalone="no"?>
<!DOCTYPE svg PUBLIC "-//W3C//DTD SVG 1.1//EN" "http://www.w3.org/Graphics/SVG/1.1/DTD/svg11.dtd" >
<svg xmlns="http://www.w3.org/2000/svg">
<metadata>Generated by IcoMoon</metadata>
<defs>
<font id="icomoon" horiz-adv-x="1024">
<font-face units-per-em="1024" ascent="960" descent="-64" />
<missing-glyph horiz-adv-x="1024" />
<glyph unicode="&#x20;" d="" horiz-adv-x="512" />
<glyph unicode="&#xe600;" d="M983.040 752.998c-34.714-15.411-71.936-25.754-111.053-30.464 39.936 23.91 70.605 61.798 84.992 106.906-37.325-22.118-78.694-38.246-122.675-46.899-35.277 37.581-85.504 61.030-141.107 61.030-106.752 0-193.28-86.528-193.28-193.229 0-15.155 1.69-29.901 5.018-44.032-160.614 8.038-303.053 84.992-398.336 201.933-16.691-28.518-26.266-61.747-26.266-97.178 0-67.072 34.15-126.208 86.016-160.87-31.693 1.024-61.491 9.677-87.552 24.166 0-0.819 0-1.587 0-2.406 0-93.645 66.662-171.725 155.034-189.542-16.179-4.403-33.28-6.758-50.944-6.758-12.442 0-24.525 1.178-36.352 3.43 24.576-76.8 96-132.659 180.531-134.195-66.15-51.866-149.453-82.739-240.026-82.739-15.616 0-30.976 0.922-46.080 2.714 85.504-54.835 187.085-86.835 296.294-86.835 355.482 0 549.888 294.502 549.888 549.939 0 8.346-0.154 16.691-0.563 24.986 37.786 27.238 70.502 61.286 96.461 100.045z" />
<glyph unicode="&#xe601;" d="M768 761.395h-146.227c-17.306 0-36.608-22.733-36.608-53.197v-105.574h182.835v-150.528h-182.835v-452.096h-172.646v452.045h-156.518v150.579h156.518v88.576c0 127.027 88.166 230.4 209.203 230.4h146.278v-160.205z" />
<glyph unicode="&#xe602;" d="M778.24 460.8c0-147.046-119.245-266.24-266.24-266.24-147.046 0-266.24 119.194-266.24 266.24 0 17.51 1.741 34.611 5.018 51.2h-179.098v-353.894c0-75.981 61.542-137.626 137.626-137.626h605.389c75.981 0 137.626 61.594 137.626 137.626v353.894h-179.046c3.226-16.589 4.966-33.69 4.966-51.2zM814.694 901.12h-605.389c-76.032 0-137.626-61.645-137.626-137.626v-149.094h222.925c48.179 68.096 127.59 112.64 217.395 112.64s169.216-44.544 217.395-112.64h222.925v149.094c0 75.981-61.645 137.626-137.626 137.626zM882.022 731.136c0-13.568-11.059-24.576-24.576-24.576h-73.677c-13.517 0-24.576 11.059-24.576 24.576v73.728c0 13.568 11.11 24.576 24.576 24.576h73.677c13.568 0 24.576-11.059 24.576-24.576v-73.728zM675.84 460.8c0 90.522-73.37 163.84-163.84 163.84s-163.84-73.318-163.84-163.84 73.37-163.84 163.84-163.84 163.84 73.318 163.84 163.84z" />
<glyph unicode="&#xe603;" d="M661.875 687.245c-16 0-30.592-4.109-42.253-11.75-7.155 38.502-46.963 75.866-107.622 75.866s-100.467-37.35-107.635-75.866c-11.661 7.642-26.253 11.75-42.24 11.75-50.278 0-102.285-39.693-102.285-106.125 0-53.082 50.995-85.645 102.4-88.166v-341.914c0-3.533 2.867-6.4 6.4-6.4h286.72c3.533 0 6.4 2.867 6.4 6.4v341.926c51.405 2.509 102.4 35.085 102.4 88.166 0 66.419-52.006 106.112-102.285 106.112zM648.96 157.453h-273.92v89.6h273.92v-89.6zM655.36 505.6c-3.533 0-6.4-2.867-6.4-6.4v-239.36h-69.12v96c0 3.533-2.867 6.4-6.4 6.4s-6.4-2.867-6.4-6.4v-96h-48.64v116.48c0 3.533-2.867 6.4-6.4 6.4s-6.4-2.867-6.4-6.4v-116.48h-48.64v96c0 3.533-2.867 6.4-6.4 6.4s-6.4-2.867-6.4-6.4v-96h-69.12v239.36c0 3.533-2.867 6.4-6.4 6.4-47.194 0-96 28.25-96 75.52 0 58.419 45.491 93.325 89.485 93.325 17.421 0 32.678-5.658 42.944-15.923 1.843-1.83 4.595-2.394 6.976-1.382 2.394 0.986 3.955 3.328 3.955 5.914 0 36.314 36.71 75.507 96 75.507s96-39.194 96-75.507c0-2.586 1.562-4.928 3.955-5.914 2.394-0.998 5.133-0.448 6.976 1.382 10.266 10.266 25.523 15.923 42.957 15.923 43.981 0 89.485-34.906 89.485-93.325-0.013-47.27-48.819-75.52-96.013-75.52z" />
<glyph unicode="&#xe604;" d="M296.96 267.52h430.080c3.533 0 6.4 2.867 6.4 6.4v266.24c0 3.533-2.867 6.4-6.4 6.4h-430.080c-3.533 0-6.4-2.867-6.4-6.4v-266.24c0-3.533 2.867-6.4 6.4-6.4zM303.36 533.76h417.28v-253.44h-417.28v253.44zM665.6 464.64h-307.2c-3.533 0-6.4-2.867-6.4-6.4s2.867-6.4 6.4-6.4h307.2c3.533 0 6.4 2.867 6.4 6.4s-2.854 6.4-6.4 6.4zM296.96 574.72h225.28c3.533 0 6.4 2.867 6.4 6.4v61.44c0 3.533-2.867 6.4-6.4 6.4h-225.28c-3.533 0-6.4-2.867-6.4-6.4v-61.44c0-3.533 2.867-6.4 6.4-6.4zM303.36 636.16h212.48v-48.64h-212.48v48.64zM808.96 677.12c3.533 0 6.4 2.867 6.4 6.4v61.44c0 3.533-2.867 6.4-6.4 6.4h-593.92c-3.533 0-6.4-2.867-6.4-6.4v-61.44c0-3.533 2.867-6.4 6.4-6.4h14.080v-437.76h-14.080c-3.533 0-6.4-2.867-6.4-6.4v-81.92c0-3.533 2.867-6.4 6.4-6.4h593.92c3.533 0 6.4 2.867 6.4 6.4v81.92c0 3.533-2.867 6.4-6.4 6.4h-14.080v437.76h14.080zM221.44 738.56h581.12v-48.64h-581.12v48.64zM802.56 157.44h-581.12v69.12h581.12v-69.12zM782.080 239.36h-540.16v437.76h540.16v-437.76zM614.4 574.72c20.467 0 37.12 16.653 37.12 37.12s-16.653 37.12-37.12 37.12-37.12-16.653-37.12-37.12 16.653-37.12 37.12-37.12zM614.4 636.16c13.414 0 24.32-10.906 24.32-24.32s-10.906-24.32-24.32-24.32-24.32 10.906-24.32 24.32 10.906 24.32 24.32 24.32zM716.8 574.72c20.467 0 37.12 16.653 37.12 37.12s-16.653 37.12-37.12 37.12-37.12-16.653-37.12-37.12 16.653-37.12 37.12-37.12zM716.8 636.16c13.414 0 24.32-10.906 24.32-24.32s-10.906-24.32-24.32-24.32-24.32 10.906-24.32 24.32 10.906 24.32 24.32 24.32z" />
<glyph unicode="&#xe605;" d="M514.765 239.322c-0.64 0.678-1.203 1.242-1.946 2.035-16.819 17.779-56.192 59.443-133.939 59.443h-55.040v14.080c0 3.533-2.867 6.4-6.4 6.4h-102.4c-3.533 0-6.4-2.867-6.4-6.4v-163.84c0-3.533 2.867-6.4 6.4-6.4h102.4c3.533 0 6.4 2.867 6.4 6.4v14.080h382.72c3.533 0 6.4 2.867 6.4 6.4 0 46.438-99.085 67.418-198.195 67.802zM311.040 157.44h-89.6v151.040h89.6v-151.040zM323.84 177.92v110.080h55.040c63.616 0 99.674-30.118 118.080-48.64h-118.080c-3.533 0-6.4-2.867-6.4-6.4s2.867-6.4 6.4-6.4h133.12c98.086 0 176.422-20.902 186.944-48.64h-375.104zM256 208.64c-9.178 0-16.653-7.462-16.653-16.64s7.475-16.64 16.653-16.64 16.64 7.462 16.64 16.64-7.462 16.64-16.64 16.64zM256 188.16c-2.125 0-3.853 1.715-3.853 3.84s1.728 3.84 3.853 3.84c2.112 0 3.84-1.728 3.84-3.84s-1.715-3.84-3.84-3.84zM808.96 423.68h-45.133c-3.187 126.029-99.098 229.261-222.003 243.84 10.611 8.691 17.536 21.734 17.536 36.48 0 26.125-21.235 47.36-47.347 47.36s-47.36-21.248-47.36-47.36c0-14.758 6.925-27.789 17.536-36.48-122.918-14.579-218.829-117.811-222.016-243.827h-45.133c-3.533 0-6.4-2.867-6.4-6.4s2.867-6.4 6.4-6.4h17.69l55.091-59.392c1.216-1.306 2.918-2.048 4.685-2.048h434.534c1.702 0 3.328 0.678 4.531 1.869l59.558 59.558h17.83c3.533 0 6.4 2.867 6.4 6.4s-2.867 6.4-6.4 6.4zM477.44 704c0 19.059 15.501 34.56 34.56 34.56 19.046 0 34.547-15.501 34.547-34.56s-15.488-34.56-34.547-34.56c-19.059 0-34.56 15.501-34.56 34.56zM512 656.64c129.818 0 235.584-103.949 239.027-232.96h-478.054c3.43 129.011 109.21 232.96 239.027 232.96zM724.39 362.24h-429.094l-45.107 48.64h522.854l-48.653-48.64zM512 608c-63.808 0-123.098-31.693-158.618-84.762-1.958-2.931-1.178-6.912 1.766-8.87 1.101-0.73 2.342-1.075 3.558-1.075 2.061 0 4.083 0.998 5.325 2.842 33.139 49.498 88.448 79.066 147.968 79.066 3.533 0 6.4 2.867 6.4 6.4s-2.854 6.4-6.4 6.4z" />
<glyph unicode="&#xe606;" d="M808.96 710.4h-96v34.56c0 3.533-2.867 6.4-6.4 6.4h-81.92c-3.533 0-6.4-2.867-6.4-6.4v-34.56h-212.48v34.56c0 3.533-2.867 6.4-6.4 6.4h-81.92c-3.533 0-6.4-2.867-6.4-6.4v-34.56h-96c-3.533 0-6.4-2.867-6.4-6.4v-552.96c0-3.533 2.867-6.4 6.4-6.4h593.92c3.533 0 6.4 2.867 6.4 6.4v552.96c0 3.533-2.854 6.4-6.4 6.4zM631.040 738.56h69.12v-89.6h-69.12v89.6zM323.84 738.56h69.12v-89.6h-69.12v89.6zM311.040 697.6v-55.040c0-3.533 2.867-6.4 6.4-6.4h81.92c3.533 0 6.4 2.867 6.4 6.4v55.040h212.48v-55.040c0-3.533 2.867-6.4 6.4-6.4h81.92c3.533 0 6.4 2.867 6.4 6.4v55.040h89.6v-130.56h-581.12v130.56h89.6zM221.44 157.44v396.8h581.12v-396.8h-581.12zM488.064 463.539h-41.101c-3.533 0-6.4-2.867-6.4-6.4v-198.643c0-3.533 2.867-6.4 6.4-6.4h41.101c3.533 0 6.4 2.867 6.4 6.4v198.643c0 3.533-2.867 6.4-6.4 6.4zM481.664 264.896h-28.301v185.843h28.301v-185.843zM577.037 463.539h-41.101c-3.533 0-6.4-2.867-6.4-6.4v-198.643c0-3.533 2.867-6.4 6.4-6.4h41.101c3.533 0 6.4 2.867 6.4 6.4v198.643c0 3.533-2.867 6.4-6.4 6.4zM570.637 264.896h-28.301v185.843h28.301v-185.843z" />
<glyph unicode="&#xe607;" d="M768 723.2h-121.6v44.8c0 3.533-2.867 6.4-6.4 6.4h-57.882c-2.97 32.205-28.698 51.2-70.118 51.2s-67.136-18.995-70.118-51.2h-57.882c-3.533 0-6.4-2.867-6.4-6.4v-44.8h-121.6c-3.533 0-6.4-2.867-6.4-6.4v-640c0-3.533 2.867-6.4 6.4-6.4h512c3.533 0 6.4 2.867 6.4 6.4v640c0 3.533-2.867 6.4-6.4 6.4zM384 608h256c3.533 0 6.4 2.867 6.4 6.4v44.8h64v-499.2h-396.8v499.2h64v-44.8c0-3.533 2.867-6.4 6.4-6.4zM390.4 761.6h57.6c3.533 0 6.4 2.867 6.4 6.4 0 40.435 40.282 44.8 57.6 44.8s57.6-4.365 57.6-44.8c0-3.533 2.867-6.4 6.4-6.4h57.6v-140.8h-243.2v140.8zM761.6 83.2h-499.2v627.2h115.2v-38.4h-70.4c-3.533 0-6.4-2.867-6.4-6.4v-512c0-3.533 2.867-6.4 6.4-6.4h409.6c3.533 0 6.4 2.867 6.4 6.4v512c0 3.533-2.867 6.4-6.4 6.4h-70.4v38.4h115.2v-627.2zM396.8 531.2h225.946c3.533 0 6.4 2.867 6.4 6.4s-2.867 6.4-6.4 6.4h-225.946c-3.533 0-6.4-2.867-6.4-6.4s2.867-6.4 6.4-6.4zM396.8 454.4h225.946c3.533 0 6.4 2.867 6.4 6.4s-2.867 6.4-6.4 6.4h-225.946c-3.533 0-6.4-2.867-6.4-6.4s2.867-6.4 6.4-6.4zM396.8 377.6h225.946c3.533 0 6.4 2.867 6.4 6.4s-2.867 6.4-6.4 6.4h-225.946c-3.533 0-6.4-2.867-6.4-6.4s2.867-6.4 6.4-6.4zM396.8 300.8h225.946c3.533 0 6.4 2.867 6.4 6.4s-2.867 6.4-6.4 6.4h-225.946c-3.533 0-6.4-2.867-6.4-6.4s2.867-6.4 6.4-6.4z" />
<glyph unicode="&#xe608;" d="M780.8 748.8h-38.963c-3.533 0-6.4-2.867-6.4-6.4s2.867-6.4 6.4-6.4h32.563v-652.8h-524.8v652.8h40.346c3.533 0 6.4 2.867 6.4 6.4s-2.867 6.4-6.4 6.4h-46.746c-3.533 0-6.4-2.867-6.4-6.4v-665.6c0-3.533 2.867-6.4 6.4-6.4h537.6c3.533 0 6.4 2.867 6.4 6.4v665.6c0 3.533-2.867 6.4-6.4 6.4zM345.6 683.686h332.8c3.533 0 6.4 2.867 6.4 6.4v52.314c0 3.533-2.867 6.4-6.4 6.4h-91.827c-3.162 36.864-32.922 76.8-70.669 76.8-37.76 0-67.52-39.936-70.682-76.8h-99.622c-3.533 0-6.4-2.867-6.4-6.4v-52.314c0-3.533 2.867-6.4 6.4-6.4zM352 736h99.341c3.533 0 6.4 2.867 6.4 6.4 0 31.885 25.946 70.4 58.163 70.4s58.15-38.515 58.15-70.4c0-3.533 2.867-6.4 6.4-6.4h91.546v-39.514h-320v39.514zM288 690.086v-562.086c0-3.533 2.867-6.4 6.4-6.4h435.2c3.533 0 6.4 2.867 6.4 6.4v562.086c0 3.533-2.867 6.4-6.4 6.4s-6.4-2.867-6.4-6.4v-555.686h-422.4v555.686c0 3.533-2.867 6.4-6.4 6.4s-6.4-2.867-6.4-6.4zM645.005 569.6h-193.664c-3.533 0-6.4-2.867-6.4-6.4s2.867-6.4 6.4-6.4h193.664c3.533 0 6.4 2.867 6.4 6.4s-2.854 6.4-6.4 6.4zM645.005 467.2h-193.664c-3.533 0-6.4-2.867-6.4-6.4s2.867-6.4 6.4-6.4h193.664c3.533 0 6.4 2.867 6.4 6.4s-2.854 6.4-6.4 6.4zM645.005 364.8h-193.664c-3.533 0-6.4-2.867-6.4-6.4s2.867-6.4 6.4-6.4h193.664c3.533 0 6.4 2.867 6.4 6.4s-2.854 6.4-6.4 6.4zM645.005 262.4h-193.664c-3.533 0-6.4-2.867-6.4-6.4s2.867-6.4 6.4-6.4h193.664c3.533 0 6.4 2.867 6.4 6.4s-2.854 6.4-6.4 6.4zM386.778 569.6h-16.141c-3.533 0-6.4-2.867-6.4-6.4s2.867-6.4 6.4-6.4h16.141c3.533 0 6.4 2.867 6.4 6.4s-2.867 6.4-6.4 6.4zM386.778 467.2h-16.141c-3.533 0-6.4-2.867-6.4-6.4s2.867-6.4 6.4-6.4h16.141c3.533 0 6.4 2.867 6.4 6.4s-2.867 6.4-6.4 6.4zM386.778 364.8h-16.141c-3.533 0-6.4-2.867-6.4-6.4s2.867-6.4 6.4-6.4h16.141c3.533 0 6.4 2.867 6.4 6.4s-2.867 6.4-6.4 6.4zM386.778 262.4h-16.141c-3.533 0-6.4-2.867-6.4-6.4s2.867-6.4 6.4-6.4h16.141c3.533 0 6.4 2.867 6.4 6.4s-2.867 6.4-6.4 6.4z" />
<glyph unicode="&#xe609;" d="M899.341 309.658c-0.32 0.781-0.794 1.485-1.382 2.074l-127.987 127.987c-1.203 1.203-2.829 1.882-4.531 1.882h-96v70.4c0 3.533-2.867 6.4-6.4 6.4h-153.6c-3.533 0-6.4-2.867-6.4-6.4s2.867-6.4 6.4-6.4h147.2v-320h-154.24c-3.226 28.723-27.379 51.2-56.947 51.2s-53.722-22.477-56.947-51.2h-77.466v236.8c0 3.533-2.867 6.4-6.4 6.4s-6.4-2.867-6.4-6.4v-243.2c0-3.533 2.867-6.4 6.4-6.4h83.853c3.226-28.723 27.379-51.2 56.947-51.2s53.722 22.477 56.947 51.2h206.106c3.226-28.723 27.379-51.2 56.947-51.2s53.722 22.477 56.947 51.2h71.053c3.533 0 6.4 2.867 6.4 6.4v128c0 0.858-0.166 1.69-0.499 2.458zM762.79 428.8l115.2-115.2h-208.55v115.2h93.35zM445.44 134.4c-24.704 0-44.8 20.096-44.8 44.8s20.096 44.8 44.8 44.8 44.8-20.096 44.8-44.8-20.096-44.8-44.8-44.8zM765.44 134.4c-24.704 0-44.8 20.096-44.8 44.8s20.096 44.8 44.8 44.8 44.8-20.096 44.8-44.8-20.096-44.8-44.8-44.8zM822.4 185.6c-3.226 28.723-27.379 51.2-56.947 51.2s-53.722-22.477-56.947-51.2h-39.066v115.2h217.6v-115.2h-64.64zM304.64 608h51.2c3.533 0 6.4 2.867 6.4 6.4s-2.867 6.4-6.4 6.4h-44.8v70.4c0 3.533-2.867 6.4-6.4 6.4s-6.4-2.867-6.4-6.4v-76.8c0-3.533 2.867-6.4 6.4-6.4zM253.44 339.2h-102.4c-3.533 0-6.4-2.867-6.4-6.4s2.867-6.4 6.4-6.4h102.4c3.533 0 6.4 2.867 6.4 6.4s-2.854 6.4-6.4 6.4zM253.44 288h-51.2c-3.533 0-6.4-2.867-6.4-6.4s2.867-6.4 6.4-6.4h51.2c3.533 0 6.4 2.867 6.4 6.4s-2.854 6.4-6.4 6.4zM253.44 236.8h-25.6c-3.533 0-6.4-2.867-6.4-6.4s2.867-6.4 6.4-6.4h25.6c3.533 0 6.4 2.867 6.4 6.4s-2.854 6.4-6.4 6.4zM304.64 480c81.165 0 147.2 66.035 147.2 147.2s-66.035 147.2-147.2 147.2-147.2-66.035-147.2-147.2 66.035-147.2 147.2-147.2zM304.64 761.6c74.112 0 134.4-60.288 134.4-134.4s-60.288-134.4-134.4-134.4-134.4 60.288-134.4 134.4 60.301 134.4 134.4 134.4z" />
<glyph unicode="&#xe60a;" d="M723.123 576.998l-38.4 243.2c-0.499 3.11-3.174 5.402-6.323 5.402h-332.8c-3.149 0-5.824-2.291-6.323-5.402l-38.477-244.198c0-116.262 89.485-207.578 204.8-210.893v-281.907h-83.2c-3.533 0-6.4-2.867-6.4-6.4s2.867-6.4 6.4-6.4h179.2c3.533 0 6.4 2.867 6.4 6.4s-2.867 6.4-6.4 6.4h-83.2v281.907c115.328 3.315 204.8 94.643 204.723 211.891zM351.066 812.8h321.869l26.33-166.426-374.72-1.536 26.522 167.962zM313.523 575.002l8.998 57.024 378.765 1.562 9.114-57.587c0-113.101-85.286-198.4-198.4-198.4s-198.4 85.299-198.477 197.402z" />
<glyph unicode="&#xe60b;" d="M889.536 281.613c-0.026 0.41-0.141 0.806-0.243 1.216-0.115 0.435-0.205 0.858-0.41 1.242-0.051 0.102-0.051 0.218-0.102 0.32l-115.2 204.8c-1.126 2.010-3.264 3.264-5.581 3.264h-128c-3.533 0-6.4-2.867-6.4-6.4s2.867-6.4 6.4-6.4h124.262l107.994-192h-219.456c-3.533 0-6.4-2.867-6.4-6.4v-25.6c0-21.197-34.342-44.8-57.6-44.8h-140.8c-22.618 0-44.8 23.014-44.8 46.464v23.936c0 3.533-2.867 6.4-6.4 6.4h-245.056l107.994 192h98.662c3.533 0 6.4 2.867 6.4 6.4s-2.867 6.4-6.4 6.4h-102.4c-2.317 0-4.454-1.254-5.581-3.264l-115.2-204.8c-0.064-0.102-0.051-0.218-0.102-0.32-0.192-0.397-0.294-0.819-0.41-1.242-0.102-0.41-0.218-0.806-0.243-1.216-0.013-0.128-0.064-0.23-0.064-0.346v-204.122c0-3.533 2.867-6.4 6.4-6.4h742.4c3.533 0 6.4 2.867 6.4 6.4v204.109c0 0.128-0.064 0.23-0.064 0.358zM876.8 83.546h-729.6v191.309h243.2v-17.536c0-30.464 27.994-59.264 57.6-59.264h140.8c27.162 0 70.4 26.368 70.4 57.6v19.2h217.6v-191.309zM494.669 455.936c0.589-0.589 1.306-1.062 2.086-1.395 0.781-0.32 1.613-0.486 2.445-0.486s1.664 0.166 2.445 0.486c0.794 0.32 1.498 0.794 2.086 1.395l127.987 127.987c2.496 2.496 2.496 6.554 0 9.050s-6.554 2.496-9.050 0l-117.069-117.069v342.95c0 3.533-2.867 6.4-6.4 6.4s-6.4-2.867-6.4-6.4v-342.95l-117.069 117.069c-2.496 2.496-6.554 2.496-9.050 0s-2.496-6.554 0-9.050l127.987-127.987z" />
<glyph unicode="&#xe60c;" d="M640 825.6c-137.626 0-249.6-111.974-249.6-249.6 0-2.266 0.282-4.454 0.346-6.707-2.24 0.141-4.467 0.307-6.746 0.307-137.626 0-249.6-111.974-249.6-249.6s111.987-249.6 249.6-249.6 249.6 111.974 249.6 249.6c0 2.278-0.166 4.506-0.294 6.733 2.253-0.051 4.442-0.333 6.694-0.333 137.626 0 249.6 111.974 249.6 249.6s-111.974 249.6-249.6 249.6zM620.8 320c0-130.573-106.227-236.8-236.8-236.8s-236.8 106.227-236.8 236.8 106.227 236.8 236.8 236.8c2.496 0 4.941-0.179 7.386-0.333 9.523-122.035 107.034-219.558 229.082-229.069 0.166-2.458 0.333-4.902 0.333-7.398zM640 339.2c-130.573 0-236.8 106.227-236.8 236.8s106.227 236.8 236.8 236.8 236.8-106.227 236.8-236.8-106.214-236.8-236.8-236.8zM640 672c24.704 0 44.8-20.096 44.8-44.8 0-3.533 2.867-6.4 6.4-6.4s6.4 2.867 6.4 6.4c0 29.568-22.477 53.722-51.2 56.947v19.853c0 3.533-2.867 6.4-6.4 6.4s-6.4-2.867-6.4-6.4v-19.853c-28.723-3.226-51.2-27.379-51.2-56.947 0-31.757 25.843-57.6 57.6-57.6 24.704 0 44.8-20.096 44.8-44.8s-20.096-44.8-44.8-44.8-44.8 20.096-44.8 44.8c0 3.533-2.867 6.4-6.4 6.4s-6.4-2.867-6.4-6.4c0-29.568 22.477-53.722 51.2-56.947v-19.853c0-3.533 2.867-6.4 6.4-6.4s6.4 2.867 6.4 6.4v19.853c28.723 3.226 51.2 27.379 51.2 56.947 0 31.757-25.843 57.6-57.6 57.6-24.704 0-44.8 20.096-44.8 44.8s20.109 44.8 44.8 44.8zM384 416c24.704 0 44.8-20.096 44.8-44.8 0-3.533 2.867-6.4 6.4-6.4s6.4 2.867 6.4 6.4c0 29.568-22.477 53.722-51.2 56.947v19.853c0 3.533-2.867 6.4-6.4 6.4s-6.4-2.867-6.4-6.4v-19.853c-28.723-3.226-51.2-27.379-51.2-56.947 0-31.757 25.843-57.6 57.6-57.6 24.704 0 44.8-20.096 44.8-44.8s-20.096-44.8-44.8-44.8-44.8 20.096-44.8 44.8c0 3.533-2.867 6.4-6.4 6.4s-6.4-2.867-6.4-6.4c0-29.568 22.477-53.722 51.2-56.947v-19.853c0-3.533 2.867-6.4 6.4-6.4s6.4 2.867 6.4 6.4v19.853c28.723 3.226 51.2 27.379 51.2 56.947 0 31.757-25.843 57.6-57.6 57.6-24.704 0-44.8 20.096-44.8 44.8s20.109 44.8 44.8 44.8z" />
<glyph unicode="&#xe60d;" d="M704 70.4c-1.6 0-3.2 0.602-4.454 1.805l-384 371.2c-1.242 1.203-1.946 2.854-1.946 4.595s0.704 3.392 1.946 4.595l384 371.2c2.56 2.445 6.618 2.394 9.050-0.154 2.458-2.547 2.394-6.592-0.154-9.050l-379.226-366.592 379.238-366.592c2.534-2.458 2.611-6.502 0.154-9.050-1.254-1.306-2.931-1.958-4.608-1.958z" />
<glyph unicode="&#xe60e;" d="M320 70.4c-1.677 0-3.354 0.653-4.595 1.946-2.458 2.547-2.394 6.592 0.154 9.050l379.226 366.605-379.238 366.605c-2.534 2.458-2.611 6.502-0.154 9.050 2.445 2.522 6.49 2.598 9.050 0.154l384-371.2c1.254-1.216 1.958-2.867 1.958-4.608s-0.704-3.392-1.946-4.595l-384-371.2c-1.254-1.203-2.854-1.805-4.454-1.805z" />
<glyph unicode="&#xe60f;" d="M710.656 177.664h-397.312c-38.912 0-71.68 32.768-71.68 71.68v397.312c0 38.912 32.768 71.68 71.68 71.68h395.264c38.912 0 71.68-32.768 71.68-71.68v-395.264c2.048-40.96-30.72-73.728-69.632-73.728zM313.344 697.856c-28.672 0-51.2-22.528-51.2-51.2v-395.264c0-28.672 22.528-51.2 51.2-51.2h395.264c28.672 0 51.2 22.528 51.2 51.2v395.264c0 28.672-22.528 51.2-51.2 51.2h-395.264z" />
<glyph unicode="&#xe610;" d="M710.656 177.664h-397.312c-38.912 0-71.68 32.768-71.68 71.68v397.312c0 38.912 32.768 71.68 71.68 71.68h346.112c6.144 0 10.24-4.096 10.24-10.24s-4.096-10.24-10.24-10.24h-346.112c-28.672 0-51.2-22.528-51.2-51.2v-395.264c0-28.672 22.528-51.2 51.2-51.2h395.264c28.672 0 51.2 22.528 51.2 51.2v266.24c0 6.144 4.096 10.24 10.24 10.24s10.24-4.096 10.24-10.24v-266.24c2.048-40.96-30.72-73.728-69.632-73.728zM542.72 312.832l-126.976 126.976c-4.096 4.096-4.096 10.24 0 14.336s10.24 4.096 14.336 0l108.544-108.544 292.864 407.552c4.096 4.096 10.24 6.144 14.336 2.048s6.144-10.24 2.048-14.336l-305.152-428.032z" />
<glyph unicode="&#xe611;" d="M153.6 307.194c-1.812 0-3.587 0.775-4.825 2.2-1.775 2.038-2.075 4.95-0.775 7.313l61.412 110.525c-48.425 40.687-75.012 97.9-75.012 161.725 0 126.95 125.95 230.237 280.762 230.237s280.762-103.288 280.762-230.237c0-3.538-2.862-6.4-6.4-6.4s-6.4 2.862-6.4 6.4c0 119.9-120.212 217.437-267.962 217.437s-267.962-97.537-267.962-217.437c0-61.675 26.425-116.775 74.4-155.162 2.438-1.95 3.112-5.375 1.6-8.113l-55.45-99.788 149.95 57.675c1.325 0.525 2.8 0.575 4.163 0.15 11.875-3.625 33.962-10.362 50.2-12.588 3.512-0.475 5.962-3.7 5.475-7.2-0.475-3.5-3.788-5.938-7.2-5.475-16.312 2.225-37.512 8.537-50.1 12.375l-164.338-63.213c-0.75-0.287-1.525-0.425-2.3-0.425zM870.4 76.794c-0.8 0-1.6 0.15-2.375 0.462l-125.512 50.2c-29.325-12.637-60.263-19.050-91.975-19.050-0.013 0-0.013 0-0.025 0-122.287 0.013-225.613 93.462-225.613 204.075 0 108.45 106.4 200.075 232.35 200.075s232.35-91.625 232.35-200.075c0-51.025-21.725-96.125-62.9-130.775l48.663-94.175c1.050-1.138 1.688-2.663 1.688-4.338 0-3.575-3.487-6.663-6.513-6.4-0.050 0-0.1 0-0.138 0zM742.4 140.794c0.813 0 1.613-0.15 2.375-0.462l112.050-44.813-43.875 84.913c-1.4 2.712-0.687 6.025 1.688 7.938 40.662 32.55 62.162 75.462 62.162 124.112 0 101.512-100.537 187.275-219.55 187.275s-219.55-85.763-219.55-187.275c0-103.675 97.463-191.262 212.813-191.275 0.013 0 0.013 0 0.025 0 30.813 0 60.85 6.4 89.262 19.037 0.825 0.363 1.712 0.55 2.6 0.55z" />
<glyph unicode="&#xe612;" d="M844.067 413.867h-664.134c-18.867 0-34.133 15.266-34.133 34.133s15.266 34.133 34.133 34.133h664.134c18.867 0 34.133-15.266 34.133-34.133s-15.267-34.133-34.133-34.133z" />
<glyph unicode="&#xe613;" d="M515 96.233c-18.867 0-34.133 15.266-34.133 34.133v635.266c0 18.867 15.266 34.133 34.133 34.133s34.133-15.266 34.133-34.133v-635.266c0-18.867-15.267-34.133-34.133-34.133zM829.633 419.833h-635.266c-18.867 0-34.133 15.266-34.133 34.133s15.266 34.133 34.133 34.133h635.266c18.867 0 34.133-15.266 34.133-34.133s-15.266-34.133-34.133-34.133z" />
<glyph unicode="&#xe614;" d="M739.767 188.2c-8.733 0-17.467 3.333-24.134 10l-449.2 449.2c-13.333 13.333-13.333 34.933 0 48.267s34.933 13.333 48.267 0l449.2-449.2c13.333-13.333 13.333-34.933 0-48.267-6.666-6.667-15.4-10-24.133-10zM284.233 190.3c-8.733 0-17.467 3.333-24.134 10-13.333 13.333-13.333 34.933 0 48.267l449.2 449.234c13.333 13.333 34.933 13.333 48.267 0s13.333-34.933 0-48.267l-449.2-449.234c-6.666-6.666-15.4-10-24.133-10z" />
<glyph unicode="&#xe615;" d="M774.8 508.075h-525.6c-5.65 0-10.25-4.588-10.25-10.237v-36.25c0-5.65 4.6-10.237 10.25-10.237h18.475l39.975-245.15c0.8-4.95 5.075-8.588 10.1-8.588h388.5c5.025 0 9.3 3.638 10.1 8.588l39.975 245.15h18.475c5.65 0 10.25 4.588 10.25 10.237v36.25c0 5.65-4.6 10.237-10.25 10.237zM697.55 218.087h-371.1l-38.025 233.263h447.15l-38.025-233.263zM764.55 471.825h-505.1v15.775h505.1v-15.775zM321.7 541.975c2.625 0 5.25 1 7.25 3l135.925 135.938c4 4 4 10.475 0 14.475s-10.5 4-14.5 0l-135.925-135.938c-4-4-4-10.475 0-14.475 2-2 4.625-3 7.25-3zM695.050 544.975c2-2 4.625-3 7.25-3s5.25 1 7.25 3c4 4 4 10.475 0 14.475l-135.925 135.938c-4 4-10.5 4-14.5 0s-4-10.475 0-14.475l135.925-135.938z" />
<glyph unicode="&#xe616;" d="M892.15 448c0 209.625-170.525 380.163-380.15 380.163s-380.15-170.537-380.15-380.163c0-100.712 39.025-195.663 109.9-267.337 72-72.75 167.975-112.825 270.25-112.825 102.462 0 198.525 40.206 270.547 113.2 0.008 0.008 0.020 0.005 0.028 0.013 70.675 71.612 109.575 166.412 109.575 266.95zM149.75 448c0 199.738 162.5 362.237 362.25 362.237s362.25-162.5 362.25-362.237c0-93.338-35.225-181.488-99.3-249.062-33.125 21.062-84.6 39.675-143.65 61.025-15 5.437-30.375 10.988-45.8 16.725v68.725c13.8 7.325 46.025 31.225 48.3 95.288 12.2 4.813 20.15 19.762 20.15 39.588 0 18.713-7.075 33.075-18.15 38.675 0.45 1.4 0.975 2.95 1.5 4.65 7.575 23.612 21.625 67.562 12.5 104.088-9.525 38.138-63.925 55.213-113.6 55.213-46.125 0-96.325-14.725-110.9-47.375-18.25 1.962-31.725-2.675-40.225-13.913-18.575-24.525-5.125-72.5 2.125-98.275 0.425-1.55 0.85-2.988 1.2-4.275-11.175-5.525-18.35-19.95-18.35-38.788 0-19.825 7.95-34.775 20.15-39.588 2.275-64.062 34.5-87.963 48.3-95.288v-68.738c-13.975-5.238-28.4-10.45-42.825-15.687-54.675-19.825-111.125-40.275-146.275-62.462-64.3 67.65-99.65 155.963-99.65 249.475zM262.847 185.614c33.723 20.291 87.028 39.706 138.928 58.523 16.525 5.988 33 11.963 48.85 17.962 3.475 1.313 5.775 4.65 5.775 8.375v80.688c0 3.8-2.45 7.213-6.050 8.475-1.725 0.613-42.375 15.788-42.375 88.362 0 4.95-4 8.963-8.95 8.963-6.925 0-11.050 11.85-11.050 23.325 0 11.462 4.125 23.312 11.050 23.312 4.95 0 8.95 4.013 8.95 8.963 0 2.913-1 6.675-3.525 15.638-5.475 19.5-18.3 65.175-5.1 82.6 5.325 7.013 15.25 8.912 30.2 5.937 4.65-0.937 9.275 1.988 10.45 6.612 7.15 28.613 54.875 41.637 96.2 41.637s89.075-13.025 96.2-41.637c7.9-31.575-5.15-72.362-12.15-94.275-3.025-9.4-4.225-13.338-4.225-16.513 0-4.95 4-8.963 8.95-8.963 6.925 0 11.050-11.85 11.050-23.312 0-11.475-4.125-23.325-11.050-23.325-4.95 0-8.95-4.013-8.95-8.963 0-72.575-40.65-87.75-42.3-88.337-3.675-1.225-6.125-4.637-6.125-8.5v-80.688c0-3.738 2.3-7.075 5.8-8.388 17.45-6.537 34.85-12.837 51.825-18.975 53.63-19.397 104.344-37.83 136.314-57.091-67.653-64.538-155.691-100.259-249.539-100.259-93.65 0-181.54 35.575-249.153 99.852z" />
<glyph unicode="&#xe617;" d="M890.717 468.77c-0.066 0.106 0.003 0.238-0.067 0.342-0.147 0.217-0.444 0.201-0.605 0.403-0.57 0.725-1.059 1.519-1.845 2.047l-124.050 83.6v264.037c0 4.95-4 8.963-8.95 8.963h-486.4c-4.95 0-8.95-4.013-8.95-8.963v-264.037l-124.050-83.6c-0.786-0.528-1.275-1.322-1.845-2.047-0.161-0.201-0.458-0.186-0.605-0.403-0.070-0.105-0.002-0.236-0.067-0.342-0.861-1.395-1.433-2.948-1.433-4.633v-338.925c0-31.638 25.725-57.375 57.35-57.375h645.575c31.65 0 57.375 25.737 57.375 57.375v338.925c0 1.684-0.572 3.238-1.433 4.633zM867.117 464.183l-102.967-68.642v138.033l102.967-69.391zM259.85 395.541l-102.967 68.642 102.967 69.391v-138.033zM834.775 85.763h-645.575c-21.75 0-39.45 17.7-39.45 39.45v322.192l179.75-119.83c1.525-1.025 3.25-1.512 4.975-1.512 2.875 0 5.725 1.4 7.45 3.987 2.75 4.125 1.625 9.688-2.475 12.425l-61.7 41.131v426.631h468.5v-426.631l-61.7-41.131c-4.1-2.737-5.225-8.3-2.475-12.425 1.725-2.587 4.575-3.987 7.45-3.987 1.725 0 3.45 0.487 4.975 1.512l179.75 119.83v-322.192c0-21.75-17.725-39.45-39.475-39.45zM633 314.038c-1.625 1.375-3.675 2.125-5.8 2.125h-230.4c-2.125 0-4.175-0.75-5.8-2.125l-166.4-140.8c-3.775-3.2-4.225-8.85-1.050-12.625 3.2-3.788 8.825-4.238 12.65-1.050l163.875 138.675h223.85l163.875-138.675c1.7-1.425 3.75-2.125 5.8-2.125 2.55 0 5.075 1.075 6.85 3.175 3.175 3.775 2.725 9.425-1.050 12.625l-166.4 140.8zM371.2 707.837h64c4.95 0 8.95 4.013 8.95 8.963s-4 8.963-8.95 8.963h-64c-4.95 0-8.95-4.013-8.95-8.963s4-8.963 8.95-8.963zM426.25 640c0-4.95 4-8.963 8.95-8.963h217.6c4.95 0 8.95 4.013 8.95 8.963s-4 8.963-8.95 8.963h-217.6c-4.95 0-8.95-4.013-8.95-8.963zM371.2 528.637h281.6c4.95 0 8.95 4.013 8.95 8.963s-4 8.963-8.95 8.963h-281.6c-4.95 0-8.95-4.013-8.95-8.963s4-8.963 8.95-8.963zM371.2 426.237h281.6c4.95 0 8.95 4.013 8.95 8.963s-4 8.963-8.95 8.963h-281.6c-4.95 0-8.95-4.013-8.95-8.963s4-8.963 8.95-8.963z" />
<glyph unicode="&#xe618;" d="M512 819.2l89.6-281.6h281.6l-225.149-162.294 97.149-298.506-243.2 179.2-243.2-179.2 97.949 290.5-225.949 170.3h281.6z" />
<glyph unicode="&#xe619;" d="M780.8 751.363h-38.962c-4.95 0-8.963-4.013-8.963-8.963s4.013-8.963 8.963-8.963h30v-647.675h-519.675v647.675h37.787c4.95 0 8.963 4.013 8.963 8.963s-4.013 8.963-8.963 8.963h-46.75c-4.95 0-8.963-4.013-8.963-8.963v-665.6c0-4.95 4.013-8.963 8.963-8.963h537.6c4.95 0 8.963 4.013 8.963 8.963v665.6c0 4.95-4.013 8.963-8.963 8.963zM345.6 681.125h332.8c4.95 0 8.963 4.013 8.963 8.963v52.312c0 4.95-4.013 8.963-8.963 8.963h-89.512c-4.325 37.313-34.675 76.8-72.987 76.8s-68.675-39.487-73-76.8h-97.3c-4.95 0-8.963-4.013-8.963-8.963v-52.313c0-4.95 4.013-8.962 8.963-8.962zM354.563 733.437h96.775c4.95 0 8.963 4.013 8.963 8.963 0 30.725 24.8 67.837 55.6 67.837 30.788 0 55.588-37.113 55.588-67.837 0-4.95 4.013-8.963 8.963-8.963h88.987v-34.387h-314.875v34.387zM285.437 690.087v-562.087c0-4.95 4.013-8.963 8.963-8.963h435.2c4.95 0 8.963 4.013 8.963 8.963v562.087c0 4.95-4.013 8.963-8.963 8.963s-8.963-4.013-8.963-8.963v-553.125h-417.275v553.125c0 4.95-4.013 8.963-8.963 8.963s-8.963-4.013-8.963-8.963zM645 572.163h-193.662c-4.95 0-8.963-4.013-8.963-8.963s4.013-8.963 8.963-8.963h193.662c4.95 0 8.963 4.013 8.963 8.963s-4.013 8.963-8.963 8.963zM645 469.763h-193.662c-4.95 0-8.963-4.013-8.963-8.963s4.013-8.963 8.963-8.963h193.662c4.95 0 8.963 4.013 8.963 8.963s-4.013 8.963-8.963 8.963zM645 367.363h-193.662c-4.95 0-8.963-4.013-8.963-8.963s4.013-8.963 8.963-8.963h193.662c4.95 0 8.963 4.013 8.963 8.963s-4.013 8.963-8.963 8.963zM645 264.963h-193.662c-4.95 0-8.963-4.013-8.963-8.963s4.013-8.963 8.963-8.963h193.662c4.95 0 8.963 4.013 8.963 8.963s-4.013 8.963-8.963 8.963zM386.775 572.163h-16.137c-4.95 0-8.963-4.013-8.963-8.963s4.013-8.963 8.963-8.963h16.137c4.95 0 8.963 4.013 8.963 8.963s-4.013 8.963-8.963 8.963zM386.775 469.763h-16.137c-4.95 0-8.963-4.013-8.963-8.963s4.013-8.963 8.963-8.963h16.137c4.95 0 8.963 4.013 8.963 8.963s-4.013 8.963-8.963 8.963zM386.775 367.363h-16.137c-4.95 0-8.963-4.013-8.963-8.963s4.013-8.963 8.963-8.963h16.137c4.95 0 8.963 4.013 8.963 8.963s-4.013 8.963-8.963 8.963zM386.775 264.963h-16.137c-4.95 0-8.963-4.013-8.963-8.963s4.013-8.963 8.963-8.963h16.137c4.95 0 8.963 4.013 8.963 8.963s-4.013 8.963-8.963 8.963z" />
<glyph unicode="&#xe61a;" d="M771.462 826.913c-3.275 1.375-7.163 0.675-9.737-1.875l-57.675-56.675-57.712 57.725c-3.5 3.5-9.175 3.5-12.675 0l-57.662-57.662-57.662 57.662c-3.5 3.5-9.175 3.5-12.675 0l-57.662-57.662-57.662 57.662c-3.5 3.5-9.175 3.5-12.675 0l-57.712-57.725-57.675 56.675c-2.55 2.55-6.425 3.25-9.737 1.875-3.325-1.4-5.5-4.65-5.5-8.262v-742.4c0-3.638 2.2-6.913 5.575-8.287 3.337-1.4 7.225-0.588 9.775 2l57.662 58.662 58.725-58.713c1.688-1.675 3.963-2.625 6.338-2.625 1.55 0.513 4.75 1 6.45 2.737l56.55 58.537 57.55-57.55c3.5-3.5 9.175-3.5 12.675 0l57.662 57.663 57.662-57.662c3.5-3.5 9.175-3.5 12.675 0l57.613 57.613 57.662-58.662c1.712-1.738 4.037-2.675 6.387-2.675 1.137 0 2.3 0.225 3.387 0.675 3.375 1.375 5.575 4.65 5.575 8.287v742.4c0 3.612-2.175 6.862-5.5 8.262zM759.037 98.15l-48.65 49.488c-1.688 1.712-4.35 2.338-6.387 2.675-2.375 0-4.65-0.95-6.338-2.625l-57.662-57.662-57.662 57.662c-3.5 3.5-9.175 3.5-12.675 0l-57.662-57.662-57.662 57.662c-1.688 1.675-3.963 2.625-6.338 2.625-3.125-0.050-4.763-0.987-6.45-2.737l-56.55-58.55-58.662 58.662c-1.688 1.675-3.963 2.625-6.338 2.625-2.537-0.562-4.7-0.963-6.387-2.675l-48.65-49.488v699.138l48.763-47.925c3.5-3.45 9.15-3.45 12.613 0.050l57.662 57.663 57.662-57.662c3.5-3.5 9.175-3.5 12.675 0l57.662 57.662 57.662-57.662c3.5-3.5 9.175-3.5 12.675 0l57.662 57.662 57.662-57.662c3.487-3.487 9.125-3.513 12.613-0.050l48.763 47.925v-699.138zM620.025 640.55c0 4.95-4.013 8.963-8.963 8.963h-258.225c-4.95 0-8.963-4.013-8.963-8.963s4.013-8.963 8.963-8.963h258.225c4.95 0 8.963 4.013 8.963 8.963zM481.95 547.112h-129.113c-4.95 0-8.963-4.013-8.963-8.963s4.013-8.963 8.963-8.963h129.113c4.95 0 8.963 4.013 8.963 8.963s-4.013 8.963-8.963 8.963zM481.95 444.712h-129.113c-4.95 0-8.963-4.013-8.963-8.963s4.013-8.963 8.963-8.963h129.113c4.95 0 8.963 4.013 8.963 8.963s-4.013 8.963-8.963 8.963zM449.675 342.312h-96.837c-4.95 0-8.963-4.013-8.963-8.963s4.013-8.963 8.963-8.963h96.837c4.95 0 8.963 4.013 8.963 8.963s-4.013 8.963-8.963 8.963zM627.2 454.612c21.75 0 39.45-17.7 39.45-39.45 0-4.95 4.013-8.963 8.963-8.963s8.963 4.013 8.963 8.963c0 28.569-21.047 52.128-48.412 56.469v28.119c0 4.95-4.013 8.963-8.963 8.963s-8.963-4.013-8.963-8.963v-28.119c-27.369-4.341-48.425-27.9-48.425-56.469 0-31.638 25.75-57.388 57.388-57.388 21.75 0 39.45-17.688 39.45-39.438 0-21.763-17.7-39.462-39.45-39.462-21.763 0-39.462 17.7-39.462 39.462 0 4.95-4.013 8.963-8.963 8.963s-8.963-4.013-8.963-8.963c0-28.569 21.056-52.139 48.425-56.481v-30.906c0-4.95 4.013-8.963 8.963-8.963s8.963 4.013 8.963 8.963v30.908c27.366 4.342 48.412 27.911 48.412 56.48 0 31.625-25.737 57.362-57.375 57.362-21.763 0-39.462 17.7-39.462 39.462 0 21.75 17.7 39.45 39.462 39.45z" />
<glyph unicode="&#xe61b;" d="M823.050 660.8v-161.6c0-4.95 4-8.963 8.95-8.963s8.95 4.013 8.95 8.963v166.4c0 3-1.475 5.787-3.975 7.45l-230.4 153.6c-0.161 0.108-0.366 0.066-0.531 0.163-1.311 0.772-2.755 1.327-4.383 1.338-0.044 0-0.078 0-0.122 0-1.628-0.011-3.070-0.567-4.381-1.338-0.166-0.097-0.372-0.055-0.533-0.163l-225.425-150.288-225.425 150.288c-2.725 1.825-6.275 2.012-9.2 0.45s-4.725-4.6-4.725-7.9v-537.6c0-3 1.475-5.787 3.975-7.45l230.4-153.6c0.161-0.108 0.366-0.064 0.531-0.161 1.328-0.781 2.789-1.352 4.444-1.352s3.117 0.57 4.445 1.352c0.166 0.097 0.37 0.053 0.53 0.161l192 128c4.1 2.737 5.225 8.3 2.475 12.425-2.775 4.15-8.35 5.225-12.425 2.475l-178.075-118.72v516.070l212.5 141.67v-303.27c0-4.95 4-8.963 8.95-8.963s8.95 4.013 8.95 8.963v303.27l212.5-141.67zM149.75 802.462l212.5-141.662v-516.070l-212.5 141.67v516.062zM755.2 367.363c-33.175 0-60.15-26.988-60.15-60.163s26.975-60.163 60.15-60.163 60.15 26.988 60.15 60.163-26.975 60.163-60.15 60.163zM755.2 264.963c-23.3 0-42.25 18.95-42.25 42.237s18.95 42.237 42.25 42.237 42.25-18.95 42.25-42.237-18.95-42.237-42.25-42.237zM755.2 444.163c-75.525 0-136.95-61.437-136.95-136.963 0-73 124.65-229.388 129.95-236 1.7-2.125 4.275-3.363 7-3.363s5.3 1.238 7 3.363c5.3 6.612 129.95 163 129.95 236 0 75.525-61.425 136.963-136.95 136.963zM755.2 91.35c-26.475 34.312-119.050 158.363-119.050 215.85 0 65.637 53.4 119.037 119.050 119.037s119.050-53.4 119.050-119.037c0-57.488-92.575-181.538-119.050-215.85z" />
<glyph unicode="&#xe61c;" d="M819.2 687.363h-614.4c-40.9 0-72.95-32.050-72.95-72.963v-332.8c0-40.912 32.050-72.963 72.95-72.963h614.4c40.9 0 72.95 32.050 72.95 72.963v332.8c0 40.912-32.050 72.963-72.95 72.963zM204.8 669.437h614.4c30.875 0 55.050-24.175 55.050-55.037v-55.037h-724.5v55.037c0 30.863 24.175 55.037 55.050 55.037zM819.2 226.563h-614.4c-30.875 0-55.050 24.175-55.050 55.037v259.837h724.5v-259.837c0-30.863-24.175-55.037-55.050-55.037zM780.8 456.963h-128c-4.95 0-8.95-4.013-8.95-8.963s4-8.963 8.95-8.963h128c4.95 0 8.95 4.013 8.95 8.963s-4 8.963-8.95 8.963zM499.2 456.963h-256c-4.95 0-8.95-4.013-8.95-8.963s4-8.963 8.95-8.963h256c4.95 0 8.95 4.013 8.95 8.963s-4 8.963-8.95 8.963zM345.6 380.163h-102.4c-4.95 0-8.95-4.013-8.95-8.963s4-8.963 8.95-8.963h102.4c4.95 0 8.95 4.013 8.95 8.963s-4 8.963-8.95 8.963z" />
<glyph unicode="&#xe61d;" d="M345.6 131.837c-1.275 0-2.55 0.275-3.75 0.825-3.175 1.463-5.2 4.637-5.2 8.137v119.037h-195.85c-4.95 0-8.95 4.013-8.95 8.963v486.4c0 4.95 4 8.963 8.95 8.963h742.4c4.95 0 8.95-4.013 8.95-8.963v-486.4c0-4.95-4-8.963-8.95-8.963h-384.025l-147.775-125.862c-1.65-1.4-3.7-2.138-5.8-2.138zM149.75 277.763h195.85c4.95 0 8.95-4.013 8.95-8.963v-108.6l135.525 115.425c1.6 1.375 3.675 2.138 5.8 2.138h378.375v468.475h-724.5v-468.475zM592.7 618.237h-290.5c-4.95 0-8.95 4.013-8.95 8.963s4 8.963 8.95 8.963h290.5c4.95 0 8.95-4.013 8.95-8.963s-4-8.963-8.95-8.963zM721.8 513.613h-419.6c-4.95 0-8.95 4.013-8.95 8.963s4 8.963 8.95 8.963h419.6c4.95 0 8.95-4.013 8.95-8.963s-4-8.963-8.95-8.963zM721.8 413.437h-419.6c-4.95 0-8.95 4.013-8.95 8.963s4 8.963 8.95 8.963h419.6c4.95 0 8.95-4.013 8.95-8.963s-4-8.963-8.95-8.963z" />
<glyph unicode="&#xe61e;" d="M153.6 304.65c-2.537 0-5.025 1.075-6.762 3.075-2.475 2.85-2.9 6.925-1.075 10.225l60.388 108.7c-47.988 41.088-74.313 98.425-74.313 162.313 0 128.362 127.1 232.8 283.325 232.8s283.325-104.438 283.325-232.8c0-4.95-4.013-8.963-8.963-8.963s-8.963 4.013-8.963 8.963c0 118.488-119.063 214.875-265.4 214.875s-265.4-96.387-265.4-214.875c0-60.875 26.075-115.275 73.437-153.162 3.412-2.737 4.35-7.525 2.237-11.35l-52.025-93.625 143.375 55.15c1.875 0.675 3.938 0.75 5.838 0.2 17.475-5.35 35.612-10.575 49.787-12.5 4.9-0.675 8.337-5.175 7.663-10.075-0.663-4.9-5.188-8.275-10.087-7.675-14.587 1.975-32.362 6.95-49.65 12.2l-163.525-62.9c-1.038-0.4-2.138-0.575-3.213-0.575zM870.4 74.25c-1.125 0-2.25 0.2-3.325 0.625l-124.525 49.825c-29.362-12.5-60.3-18.85-92.013-18.85-0.013 0-0.013 0-0.025 0-123.675 0.025-228.175 94.65-228.175 206.65 0 109.825 107.575 202.625 234.913 202.625s234.913-92.8 234.913-202.625c0-51.15-21.5-96.45-62.25-131.425l47.325-91.6c1.587-1.625 2.575-3.825 2.575-6.275-0.013-5.025-4.663-9.025-9.188-8.95-0.075 0-0.15 0-0.225 0zM742.4 143.35c1.125 0 2.263-0.2 3.325-0.625l105.675-42.275-40.725 78.8c-1.962 3.8-0.975 8.45 2.363 11.125 40.037 32.050 61.2 74.275 61.2 122.125 0 100.125-99.363 184.7-216.987 184.7s-216.987-84.575-216.987-184.7c0-102.3 96.287-188.725 210.25-188.725 0.013 0 0.013 0 0.025 0 30.45 0 60.137 6.325 88.225 18.825 1.15 0.5 2.4 0.75 3.637 0.75z" />
<glyph unicode="&#xe61f;" d="M947.2 340.075h-93.437v462.988c0 4.95-4.013 8.963-8.963 8.963s-8.963-4.013-8.963-8.963v-462.988h-93.437c-4.95 0-8.963-4-8.963-8.95v-102.4c0-4.95 4.013-8.95 8.963-8.95h93.437v-126.85c0-4.95 4.013-8.95 8.963-8.95s8.963 4 8.963 8.95v126.85h93.437c4.95 0 8.963 4 8.963 8.95v102.4c0 4.95-4.013 8.95-8.963 8.95zM938.237 237.675h-186.875v84.5h186.875v-84.5zM640 647.3h-93.437v155.762c0 4.95-4.013 8.963-8.963 8.963s-8.963-4.013-8.963-8.963v-155.762h-93.437c-4.95 0-8.963-4.013-8.963-8.963v-102.4c0-4.95 4.013-8.963 8.963-8.963h93.437v-434.050c0-4.95 4.013-8.95 8.963-8.95s8.963 4 8.963 8.95v434.050h93.437c4.95 0 8.963 4.013 8.963 8.963v102.4c0 4.95-4.013 8.963-8.963 8.963zM631.037 544.9h-186.875v84.475h186.875v-84.475zM281.6 442.5h-93.437v360.562c0 4.95-4.013 8.963-8.963 8.963s-8.963-4.013-8.963-8.963v-360.562h-93.437c-4.95 0-8.963-4.013-8.963-8.963v-102.413c0-4.95 4.013-8.95 8.963-8.95h93.437v-229.25c0-4.95 4.013-8.95 8.963-8.95s8.963 4 8.963 8.95v229.25h93.437c4.95 0 8.963 4 8.963 8.95v102.413c0 4.95-4.013 8.963-8.963 8.963zM272.637 340.075h-186.875v84.5h186.875v-84.5z" />
<glyph unicode="&#xe620;" d="M303.125 251.8l-147.525-147.525c-3.5-3.5-3.5-9.15 0-12.65 1.75-1.75 4.050-2.625 6.338-2.625s4.588 0.875 6.338 2.625l147.525 147.525c3.5 3.5 3.5 9.15 0 12.65s-9.175 3.5-12.675 0zM541 268.15h-208.837v208.85c0 4.95-4.013 8.963-8.963 8.963s-8.963-4.013-8.963-8.963v-217.8c0-4.95 4.013-8.95 8.963-8.95h217.8c4.95 0 8.963 4 8.963 8.95s-4.013 8.95-8.963 8.95zM629.563 356.7h-208.85v208.862c0 4.95-4.013 8.963-8.963 8.963s-8.963-4.013-8.963-8.963v-217.812c0-4.95 4.013-8.95 8.963-8.95h217.812c4.95 0 8.963 4 8.963 8.95s-4.013 8.95-8.963 8.95zM718.125 445.275h-208.85v208.85c0 4.95-4.013 8.963-8.963 8.963s-8.963-4.013-8.963-8.963v-217.812c0-4.95 4.013-8.963 8.963-8.963h217.812c4.95 0 8.963 4.013 8.963 8.963s-4.013 8.963-8.963 8.963zM806.675 533.825h-208.85v208.85c0 4.95-4.013 8.963-8.963 8.963s-8.963-4.013-8.963-8.963v-217.812c0-4.95 4.013-8.963 8.963-8.963h217.812c4.95 0 8.963 4.013 8.963 8.963s-4.013 8.963-8.963 8.963zM868.4 804.4c-2.938 2.925-7.537 3.425-11.063 1.275l-163.663-101.75c-1.988-1.238-3.412-3.2-3.975-5.463l-20.35-82.263c-0.75-3.050 0.15-6.263 2.363-8.487 1.7-1.7 3.987-2.625 6.338-2.625 0.712 0 1.437 0.088 2.15 0.262l82.263 20.35c2.263 0.562 4.225 1.988 5.463 3.975l101.75 163.663c2.2 3.525 1.662 8.113-1.275 11.063zM754.625 642.225l-64.313-15.912 15.912 64.313 127.95 79.55-79.55-127.95z" />
<glyph unicode="&#xe621;" d="M756.725 414.75c42.025 0 76.225 34.2 76.225 76.238 0 42.025-34.2 76.225-76.225 76.225s-76.225-34.2-76.225-76.225c0-42.038 34.2-76.238 76.225-76.238zM756.725 549.287c32.15 0 58.325-26.15 58.325-58.3s-26.175-58.312-58.325-58.312-58.325 26.162-58.325 58.312 26.175 58.3 58.325 58.3zM512 250.325c50.45 0 91.475 41.025 91.475 91.475s-41.025 91.475-91.475 91.475-91.475-41.025-91.475-91.475 41.025-91.475 91.475-91.475zM512 415.35c40.575 0 73.575-33 73.575-73.55 0-40.575-33-73.575-73.575-73.575s-73.575 33-73.575 73.575c0 40.55 33 73.55 73.575 73.55zM293.2 395.425c26.45 0 47.95 21.5 47.95 47.963 0 26.45-21.5 47.963-47.95 47.963s-47.95-21.512-47.95-47.963c0-26.463 21.5-47.963 47.95-47.963zM293.2 473.425c16.575 0 30.050-13.475 30.050-30.038 0-16.575-13.475-30.063-30.050-30.063s-30.050 13.488-30.050 30.063c0 16.563 13.475 30.038 30.050 30.038zM897.827 636.709c-0.114 2.158-1.016 4.141-2.526 5.689-0.092 0.095-0.053 0.247-0.15 0.339-0.092 0.089-0.197 0.161-0.289 0.248-0.005 0.005-0.006 0.009-0.011 0.014s-0.013 0.005-0.017 0.009c-129.517 123.116-349.641 119.841-358.958 119.653-1.4-0.037-2.75-0.388-4-1.038l-401.050-212.275c-4.375-2.325-6.025-7.738-3.725-12.112 0.145-0.27 0.434-0.38 0.602-0.63-0.791-1.341-1.627-2.694-1.627-4.345v-194.988c0-4.95 4-8.95 8.95-8.95 31.4 0 56.025-24.625 56.025-56.050s-24.625-56.050-56.025-56.050c-4.95 0-8.95-4-8.95-8.95v-65c0-2.6 1.1-5.050 3.075-6.75 1.625-1.425 3.725-2.2 5.875-2.2 0.4 0 0.825 0.025 1.225 0.075l753.95 104c4.425 0.6 7.725 4.4 7.725 8.875v389.975c0 0.044-0.027 0.081-0.027 0.123-0.001 0.122-0.064 0.214-0.072 0.336zM538.325 744.763c20.761 0.323 210.402-2.781 329.753-102.35l-707.43-97.572 377.677 199.922zM880.025 254.075l-736.050-101.525v46.275c37.1 4.3 64.975 35.025 64.975 73.45s-27.875 69.15-64.975 73.45v178.725l736.050 101.525v-371.9z" />
<glyph unicode="&#xe622;" d="M764.25 699.837c-36.55 36.562-81.275 56.7-125.9 56.7-44.375 0-87.425-19.6-124.525-56.7-45.925-45.925-50.025-82.962-53.325-112.738-2.575-23.288-4.6-41.688-24.025-61.125-19.4-19.4-37.725-21.388-60.925-23.912-29.75-3.225-66.775-7.25-112.95-53.425-76.075-76.062-76.075-174.363 0-250.437 38.425-38.425 81.925-58.75 125.8-58.75 43.725 0 85.65 19.775 124.625 58.75 49.575 49.525 52.65 86.325 55.125 115.875 1.85 21.8 3.275 39.025 22.225 58 20.125 20.1 41.225 23.125 65.65 26.625 31.5 4.525 67.175 9.625 108.225 50.7 35.6 35.562 54.75 80.837 53.975 127.462-0.75 45.238-19.925 88.913-53.975 122.975zM751.6 462.075c-36.85-36.85-68-41.325-98.1-45.625-26.475-3.8-51.45-7.375-75.775-31.725-23.6-23.575-25.45-45.725-27.425-69.15-2.35-28.025-5.025-59.8-49.925-104.725-35.5-35.475-73.175-53.475-111.975-53.475-39 0-78.125 18.5-113.15 53.475-68.35 68.4-68.35 156.75 0 225.113 41.725 41.712 72.5 45.050 102.25 48.287 24.575 2.675 47.775 5.188 71.625 29.050 23.9 23.888 26.475 47.175 29.2 71.837 3.275 29.763 6.7 60.562 48.15 102.025 33.675 33.662 72.35 51.462 111.875 51.462 39.85 0 80.050-18.275 113.25-51.462 30.725-30.75 48.050-70.025 48.725-110.6 0.675-41.725-16.625-82.387-48.725-114.488zM627.35 696.487c-6.525-6.512-6.525-17.113 0-23.625 3.15-3.15 7.35-4.888 11.8-4.888s8.65 1.737 11.8 4.888c6.525 6.512 6.525 17.113 0 23.625-6.3 6.3-17.3 6.3-23.6 0zM582.025 688.75c-6.525-6.512-6.525-17.113-0.025-23.6 3.125-3.175 7.325-4.912 11.825-4.912 4.45 0 8.65 1.737 11.825 4.912 6.45 6.5 6.45 17.075-0.025 23.6-6.35 6.338-17.449 6.275-23.6 0zM554.075 657.087c-6.525-6.512-6.525-17.113 0-23.625 3.15-3.15 7.35-4.888 11.8-4.888s8.65 1.737 11.8 4.888c6.525 6.512 6.525 17.113 0 23.625-6.3 6.3-17.3 6.3-23.6 0zM458.325 292.475c-6.525-6.5-6.525-17.1 0-23.6 3.15-3.175 7.35-4.9 11.8-4.9s8.65 1.725 11.8 4.9c6.525 6.5 6.525 17.1 0 23.6-6.3 6.35-17.3 6.35-23.6 0zM431.825 283.575c-6.3 6.35-17.3 6.35-23.6 0-6.525-6.5-6.525-17.1 0-23.6 3.15-3.175 7.35-4.9 11.8-4.9s8.65 1.725 11.8 4.9c6.525 6.5 6.525 17.1 0 23.6zM386.2 240.95c-6.525-6.5-6.525-17.1 0-23.6 3.15-3.175 7.35-4.9 11.8-4.9s8.65 1.725 11.8 4.9c6.525 6.5 6.525 17.1 0 23.6-6.3 6.35-17.3 6.35-23.6 0zM433.475 237.75c-6.525-6.5-6.525-17.1-0.025-23.575 3.125-3.175 7.325-4.925 11.825-4.925 4.475 0 8.675 1.75 11.775 4.9 6.525 6.5 6.525 17.1 0.025 23.575-6.275 6.375-17.425 6.3-23.6 0.025z" />
<glyph unicode="&#xe623;" d="M461.3 181.45c-57.65 0-111.875 22.45-152.625 63.225-40.775 40.75-63.225 94.975-63.225 152.625 0 57.662 22.45 111.875 63.225 152.637 68.35 68.35 214.55 164.613 325.6 164.613 42.525 0 77.575-13.488 104.175-40.088 116.45-116.475-50.525-355.788-124.525-429.787-40.75-40.775-94.975-63.225-152.625-63.225zM634.275 696.637c-105.925 0-246.775-93.2-312.95-159.375-37.375-37.375-57.975-87.088-57.975-139.963s20.6-102.575 57.975-139.975c37.4-37.375 87.1-57.975 139.975-57.975s102.575 20.6 139.975 57.975c89.325 89.35 222.2 306.75 124.525 404.463-23.125 23.125-53.925 34.85-91.525 34.85zM470.475 309.725c-25.85 0-50.15 10.050-68.425 28.35-18.275 18.25-28.325 42.55-28.325 68.4 0 25.862 10.050 50.162 28.35 68.438 18.25 18.275 42.55 28.35 68.4 28.35s50.15-10.075 68.425-28.35c18.3-18.275 28.35-42.575 28.35-68.438 0-25.85-10.050-50.15-28.35-68.425-18.275-18.275-42.575-28.325-68.425-28.325zM470.475 485.338c-21.050 0-40.85-8.2-55.725-23.1-14.9-14.887-23.125-34.687-23.125-55.762 0-21.050 8.225-40.85 23.1-55.725 29.85-29.825 81.775-29.775 111.525-0.025 14.875 14.9 23.1 34.7 23.1 55.75 0 21.075-8.225 40.875-23.1 55.762-14.9 14.9-34.7 23.1-55.775 23.1z" />
<glyph unicode="&#xe624;" d="M746.638 682.8c-33.613 33.6-78.288 52.125-125.812 52.125s-92.2-18.525-125.812-52.125c-37.4-37.4-56.137-89.1-51.387-141.85 0.9-10.050-5.25-23.85-11.762-38.475-11.987-26.928-27.522-61.9-9.075-98.263l-108.056-108.067c-26.281 10.269-56.031 4.48-78.931-18.42-10.962-10.95-11.425-21.4-9.887-28.25 4.787-21.25 35.487-35.475 47.112-40.15 4.9-12.8 20.712-48.25 45.5-48.25 8.050 0 15.8 3.675 23.037 10.925 16.725 16.7 25.162 35.975 24.4 55.7-0.317 8.066-2.361 15.956-5.591 23.597l107.869 107.869c11.525-5.844 23.658-9.041 36.747-9.041 23.337 0 45.15 9.275 64.388 17.45 14.312 6.1 27.837 11.85 39.863 11.85 0.062 0 0.112 0 0.175 0 51.213-2.95 100.925 15.475 137.225 51.775 69.375 69.35 69.375 182.25 0 251.6zM328.888 184.65c-3.75-3.75-7.237-5.65-10.363-5.65-11.187 0-24.513 23.925-29.988 40.1-0.875 2.6-2.9 4.65-5.488 5.575-11.762 4.175-36.95 16.725-39.663 28.725-0.3 1.325-1.2 5.375 5.087 11.675 12.313 12.3 26.35 18.8 40.588 18.8 14.188 0 28.5-6.5 40.313-18.3 11.7-11.7 18.15-25.025 18.675-38.55 0.575-14.825-5.875-29.075-19.162-42.375zM351.225 267.475c-2.727 3.694-5.726 7.305-9.175 10.75-3.442 3.442-7.108 6.375-10.864 9.048l101.566 101.578c2.77-3.533 5.777-7.067 9.311-10.601 3.508-3.506 7.138-6.33 10.766-9.172l-101.603-101.603zM733.962 443.85c-32.637-32.625-77.463-49.525-123.412-46.525l-2.825 0.075c-14.038 0-29.263-6.475-45.362-13.325-18.537-7.9-37.688-16.050-57.375-16.050-18.413 0-34.85 7.5-50.25 22.875-36.625 36.65-21.313 71.025-6.5 104.275 7.487 16.825 14.563 32.7 13.238 47.375-4.275 47.45 12.575 93.95 46.213 127.6 30.225 30.2 70.4 46.85 113.137 46.85s82.913-16.65 113.137-46.85c30.213-30.225 46.863-70.4 46.863-113.15s-16.65-82.925-46.863-113.15z" />
<glyph unicode="&#xe625;" d="M799.025 690.975c-3.013 3.875-8.613 4.625-12.562 1.625l-151.698-116.745c-1.277 1.511-2.359 3.43-3.702 4.77-1.541 1.542-3.684 2.811-5.445 4.267l95.37 126.058c2.975 3.95 2.2 9.55-1.75 12.55s-9.55 2.175-12.55-1.75l-95.969-126.85c-15.245 8.252-33.284 13.75-49.319 13.75-15.925 0-28.688-5-37.188-14.85l-294.175-376.075c-9.7-11.225-9.087-28.225 1.4-38.7 5.375-5.375 12.513-8.35 20.112-8.35 6.9 0 13.563 2.525 18.4 6.775l374.863 296.875c8.85 7.75 13.787 19.575 14.263 34.2 0.548 16.716-5.22 36.32-14.15 52.542l152.462 117.333c3.925 3.025 4.663 8.65 1.637 12.575zM633.35 488.1l-214.731-170.066c-12.019 9.65-17.553 22.058-17.619 22.191-1.962 4.525-7.237 6.65-11.762 4.65-4.538-1.95-6.638-7.175-4.7-11.725 0.297-0.698 6.397-14.405 19.823-26.409l-145.886-115.541c-4.013-3.5-10.587-3.275-14.363 0.475-3.888 3.9-4.112 10.175-0.238 14.675l224.877 287.483c7.134-8.566 17.798-20.158 26.274-24.008 1.2-0.55 2.462-0.8 3.713-0.8 3.4 0 6.65 1.95 8.15 5.25 2.050 4.5 0.062 9.8-4.438 11.85-5.17 2.356-14.955 13.042-22.358 22.206l57.958 74.094c5.95 6.875 15.987 8.325 23.35 8.325 19.2 0 44.225-10.025 56.987-22.775 13.425-13.425 23.425-39.275 22.775-58.85-0.212-6.65-1.812-15.75-7.813-21.025z" />
<glyph unicode="&#xe626;" d="M610.725 595.175c-50.175 0-68.513-12.85-81.913-22.225-3.166-2.225-5.534-3.75-7.85-4.963v47.837c0 26.725-21.737 48.45-48.45 48.45h-59.237c-4.95 0-8.963-4-8.963-8.95s4.013-8.95 8.963-8.95h59.237c16.837 0 30.525-13.7 30.525-30.55v-47.841c-2.314 1.209-4.678 2.727-7.837 4.941-13.388 9.4-31.738 22.25-81.925 22.25-81.15 0-147.175-83.725-147.175-186.675 0-133.85 74.863-255.75 157.050-255.75 52.75 0 77.688 14.225 88.85 24.55 11.15-10.325 36.088-24.55 88.85-24.55 83.663 0 157.050 119.5 157.050 255.75 0 102.95-66.025 186.675-147.175 186.675zM600.85 170.65c-66.638 0-80.738 24.5-80.763 24.525-1.45 3.050-4.538 4.9-7.9 5-0.075 0-0.15 0-0.238 0-3.275 0-6.35-1.9-7.925-4.775-0.137-0.25-14.263-24.75-80.875-24.75-71.513 0-139.125 115.6-139.125 237.85 0 93.050 57.975 168.775 129.25 168.775 44.538 0 59.562-10.55 71.638-19 7.788-5.475 15.15-10.625 27.088-10.625s19.3 5.15 27.1 10.625c12.075 8.45 27.112 19 71.625 19 71.275 0 129.25-75.725 129.25-168.775 0-136.125-73.45-237.85-139.125-237.85zM551.487 606.875c64.825 0 117.563 57.15 117.563 127.425 0 4.95-4.013 8.95-8.963 8.95-64.825 0-117.563-57.15-117.563-127.425 0-4.95 4.013-8.95 8.963-8.95zM650.737 724.825c-4.25-51.725-42.913-94.475-89.9-99.525 4.25 51.725 42.913 94.475 89.9 99.525z" />
<glyph unicode="&#xe627;" d="M511.997 825.597c-208.212 0-377.6-169.388-377.6-377.6 0-100.050 38.775-194.35 109.187-265.525 71.506-72.275 166.831-112.075 268.413-112.075 101.769 0 197.219 39.938 268.769 112.45 70.181 71.125 108.831 165.288 108.831 265.15 0 208.212-169.388 377.6-377.6 377.6zM258.469 185.904c33.74 21.127 88.85 41.218 142.528 60.68 16.469 5.975 32.9 11.925 48.7 17.9 2.488 0.937 4.137 3.325 4.137 5.987v80.687c0 2.725-1.763 5.162-4.338 6.062-1.8 0.625-44.075 16.163-44.075 90.775 0 3.538-2.862 6.4-6.4 6.4-8.831 0-13.6 13.337-13.6 25.875 0 12.55 4.769 25.887 13.6 25.887 3.538 0 6.4 2.862 6.4 6.4 0 2.575-1.056 6.438-3.444 14.937-6.044 21.562-18.637 66.413-4.65 84.862 5.944 7.85 16.856 10.1 32.712 6.9 3.331-0.687 6.637 1.4 7.463 4.725 7.487 29.925 56.413 43.562 98.7 43.562s91.213-13.638 98.7-43.562c8.062-32.3-5.138-73.538-12.225-95.688-2.919-9.138-4.106-12.95-4.106-15.737 0-3.538 2.862-6.4 6.4-6.4 8.831 0 13.6-13.337 13.6-25.887 0-7.288-1.538-14.25-4.206-19.1-2.475-4.5-5.638-6.775-9.394-6.775-3.538 0-6.4-2.862-6.4-6.4 0-74.612-42.281-90.15-44.044-90.762-2.612-0.875-4.375-3.325-4.375-6.075v-80.687c0-2.663 1.656-5.050 4.156-5.987 17.431-6.537 34.831-12.838 51.8-18.975 55.495-20.066 107.835-39.11 139.791-59.215-68.455-66.488-158.257-103.098-253.903-103.098-95.454 0-185.119 36.467-253.528 102.708zM775.347 195.634c-33 21.45-87.425 41.138-144.888 61.912-15.575 5.638-31.512 11.4-47.506 17.363v72.050c12.4 6.125 46.569 29 48.344 95.575 12.081 3.725 20.075 18.212 20.075 37.737 0 18.775-7.375 32.875-18.663 37.262 0.637 2.1 1.425 4.55 2.163 6.85 7.475 23.375 21.394 66.875 12.444 102.7-9.194 36.8-62.431 53.262-111.112 53.262-46.1 0-96.287-14.775-109.288-47.587-18.306 2.438-31.575-1.837-39.788-12.675-17.825-23.512-4.588-70.7 2.531-96.038 0.606-2.175 1.25-4.475 1.781-6.45-11.375-4.312-18.819-18.462-18.819-37.325 0-19.525 7.994-34.013 20.075-37.737 1.775-66.575 35.938-89.45 48.338-95.575v-72.062c-14.469-5.425-29.419-10.85-44.4-16.275-55.525-20.125-112.862-40.913-147.631-63.375-65.694 68.3-101.806 157.85-101.806 252.75 0 201.15 163.65 364.8 364.8 364.8s364.8-163.65 364.8-364.8c0-94.7-35.981-184.113-101.45-252.363z" />
<glyph unicode="&#xe628;" d="M889.486 464.591c-0.046 0.66-0.22 1.285-0.478 1.917-0.117 0.287-0.187 0.569-0.344 0.836-0.064 0.109-0.068 0.234-0.139 0.34-0.437 0.656-1 1.162-1.602 1.598-0.061 0.045-0.085 0.122-0.148 0.165l-125.175 84.359v265.391c0 3.538-2.862 6.4-6.4 6.4h-486.4c-3.538 0-6.4-2.862-6.4-6.4v-265.391l-125.118-84.32c-0.008-0.005-0.013-0.009-0.021-0.014l-0.036-0.024c-0.045-0.030-0.061-0.085-0.105-0.116-0.622-0.441-1.197-0.97-1.645-1.646-0.071-0.106-0.075-0.231-0.139-0.34-0.157-0.266-0.227-0.549-0.344-0.836-0.258-0.632-0.432-1.257-0.478-1.917-0.012-0.159-0.114-0.295-0.114-0.457v-338.913c0-30.225 24.588-54.825 54.813-54.825h645.562c30.231 0 54.825 24.6 54.825 54.825v338.912c0 0.162-0.102 0.298-0.114 0.457zM871.708 464.165l-110.109-73.405v147.603l110.109-74.198zM262.4 390.759l-110.109 73.405 110.109 74.198v-147.603zM834.775 83.197h-645.562c-23.169 0-42.013 18.85-42.013 42.025v326.954l183.719-122.479c1.094-0.725 2.325-1.075 3.544-1.075 2.069 0 4.1 1 5.331 2.85 1.962 2.937 1.169 6.913-1.775 8.875l-62.819 41.879v430.571h473.6v-430.571l-62.819-41.879c-2.944-1.962-3.737-5.938-1.775-8.875 1.231-1.85 3.262-2.85 5.331-2.85 1.219 0 2.45 0.35 3.544 1.075l183.719 122.479v-326.954c0-23.175-18.85-42.025-42.025-42.025zM631.331 312.084c-1.15 0.975-2.619 1.512-4.131 1.512h-230.4c-1.512 0-2.981-0.537-4.131-1.512l-166.4-140.8c-2.7-2.287-3.037-6.325-0.756-9.025 2.281-2.675 6.325-3.025 9.019-0.75l164.612 139.288h225.713l164.612-139.288c1.2-1.012 2.669-1.512 4.125-1.512 1.819 0 3.625 0.775 4.894 2.263 2.281 2.7 1.944 6.738-0.756 9.025l-166.4 140.8zM371.2 710.397h64c3.538 0 6.4 2.862 6.4 6.4s-2.862 6.4-6.4 6.4h-64c-3.538 0-6.4-2.862-6.4-6.4s2.863-6.4 6.4-6.4zM428.8 639.997c0-3.538 2.862-6.4 6.4-6.4h217.6c3.538 0 6.4 2.862 6.4 6.4s-2.862 6.4-6.4 6.4h-217.6c-3.538 0-6.4-2.863-6.4-6.4zM371.2 531.197h281.6c3.538 0 6.4 2.862 6.4 6.4s-2.862 6.4-6.4 6.4h-281.6c-3.538 0-6.4-2.862-6.4-6.4s2.863-6.4 6.4-6.4zM371.2 428.797h281.6c3.538 0 6.4 2.862 6.4 6.4s-2.862 6.4-6.4 6.4h-281.6c-3.538 0-6.4-2.862-6.4-6.4s2.863-6.4 6.4-6.4z" />
<glyph unicode="&#xe629;" d="M780.797 748.797h-38.963c-3.538 0-6.4-2.862-6.4-6.4s2.862-6.4 6.4-6.4h32.563v-652.8h-524.8v652.8h40.35c3.538 0 6.4 2.862 6.4 6.4s-2.862 6.4-6.4 6.4h-46.75c-3.538 0-6.4-2.862-6.4-6.4v-665.6c0-3.538 2.862-6.4 6.4-6.4h537.6c3.538 0 6.4 2.862 6.4 6.4v665.6c0 3.537-2.863 6.4-6.4 6.4zM345.597 683.684h332.8c3.538 0 6.4 2.862 6.4 6.4v52.312c0 3.538-2.862 6.4-6.4 6.4h-91.825c-3.162 36.862-32.913 76.8-70.675 76.8s-67.525-39.938-70.687-76.8h-99.613c-3.538 0-6.4-2.862-6.4-6.4v-52.312c0-3.537 2.862-6.4 6.4-6.4zM351.997 735.997h99.337c3.538 0 6.4 2.862 6.4 6.4 0 31.887 25.95 70.4 58.163 70.4s58.15-38.513 58.15-70.4c0-3.538 2.862-6.4 6.4-6.4h91.55v-39.512h-320v39.512zM287.997 690.084v-562.088c0-3.538 2.862-6.4 6.4-6.4h435.2c3.538 0 6.4 2.862 6.4 6.4v562.088c0 3.538-2.862 6.4-6.4 6.4s-6.4-2.862-6.4-6.4v-555.688h-422.4v555.688c0 3.538-2.862 6.4-6.4 6.4s-6.4-2.862-6.4-6.4zM645.010 569.597h-193.675c-3.538 0-6.4-2.862-6.4-6.4s2.862-6.4 6.4-6.4h193.675c3.538 0 6.4 2.862 6.4 6.4s-2.862 6.4-6.4 6.4zM645.010 467.197h-193.675c-3.538 0-6.4-2.862-6.4-6.4s2.862-6.4 6.4-6.4h193.675c3.538 0 6.4 2.862 6.4 6.4s-2.862 6.4-6.4 6.4zM645.010 364.797h-193.675c-3.538 0-6.4-2.862-6.4-6.4s2.862-6.4 6.4-6.4h193.675c3.538 0 6.4 2.862 6.4 6.4s-2.862 6.4-6.4 6.4zM645.010 262.397h-193.675c-3.538 0-6.4-2.862-6.4-6.4s2.862-6.4 6.4-6.4h193.675c3.538 0 6.4 2.862 6.4 6.4s-2.862 6.4-6.4 6.4zM386.772 569.597h-16.131c-3.538 0-6.4-2.862-6.4-6.4s2.862-6.4 6.4-6.4h16.131c3.538 0 6.4 2.862 6.4 6.4s-2.862 6.4-6.4 6.4zM386.772 467.197h-16.131c-3.538 0-6.4-2.862-6.4-6.4s2.862-6.4 6.4-6.4h16.131c3.538 0 6.4 2.862 6.4 6.4s-2.862 6.4-6.4 6.4zM386.772 364.797h-16.131c-3.538 0-6.4-2.862-6.4-6.4s2.862-6.4 6.4-6.4h16.131c3.538 0 6.4 2.862 6.4 6.4s-2.862 6.4-6.4 6.4zM386.772 262.397h-16.131c-3.538 0-6.4-2.862-6.4-6.4s2.862-6.4 6.4-6.4h16.131c3.538 0 6.4 2.862 6.4 6.4s-2.862 6.4-6.4 6.4z" />
<glyph unicode="&#xe62a;" d="M770.475 824.547c-2.362 0.988-5.112 0.462-6.963-1.337l-59.475-58.438-59.512 59.512c-2.5 2.5-6.55 2.5-9.050 0l-59.475-59.475-59.475 59.475c-2.5 2.5-6.55 2.5-9.050 0l-59.475-59.475-59.475 59.475c-2.5 2.5-6.55 2.5-9.050 0l-59.512-59.512-59.475 58.438c-1.85 1.812-4.6 2.35-6.963 1.337-2.375-1-3.925-3.325-3.925-5.9v-742.4c0-2.6 1.575-4.937 3.975-5.925 2.413-0.988 5.175-0.425 6.988 1.437l59.475 60.513 60.55-60.55c1.213-1.2 2.875-2.163 4.575-1.875 1.725 0.013 3.363 0.725 4.55 1.95l58.362 60.438 59.4-59.4c2.5-2.5 6.55-2.5 9.050 0l59.475 59.475 59.475-59.475c2.5-2.5 6.55-2.5 9.050 0l59.437 59.437 59.475-60.513c1.225-1.25 2.875-1.912 4.563-1.912 0.813 0 1.638 0.15 2.425 0.475 2.4 0.987 3.975 3.325 3.975 5.925v742.4c0 2.575-1.55 4.9-3.925 5.9zM761.6 91.884l-53.037 53.962c-1.2 1.213-2.825 1.9-4.537 1.912-0.013 0-0.013 0-0.025 0-1.7 0-3.325-0.675-4.525-1.875l-59.475-59.475-59.475 59.475c-2.5 2.5-6.55 2.5-9.050 0l-59.475-59.475-59.475 59.475c-1.2 1.2-2.825 1.875-4.525 1.875-1.475-0.2-3.4-0.712-4.6-1.95l-58.362-60.438-60.513 60.513c-1.2 1.2-2.825 1.875-4.525 1.875-0.013 0-0.013 0-0.025 0-1.713-0.013-3.337-0.7-4.537-1.912l-53.037-53.963v711.5l53.112-52.188c2.513-2.475 6.525-2.462 9.012 0.038l59.475 59.475 59.475-59.475c2.5-2.5 6.55-2.5 9.050 0l59.475 59.475 59.475-59.475c2.5-2.5 6.55-2.5 9.050 0l59.475 59.475 59.475-59.475c2.5-2.5 6.513-2.513 9.012-0.038l53.113 52.188v-711.5zM617.463 640.559c0 3.538-2.862 6.4-6.4 6.4h-258.225c-3.538 0-6.4-2.862-6.4-6.4s2.862-6.4 6.4-6.4h258.225c3.537 0 6.4 2.862 6.4 6.4zM481.95 544.559h-129.112c-3.538 0-6.4-2.862-6.4-6.4s2.862-6.4 6.4-6.4h129.112c3.538 0 6.4 2.862 6.4 6.4s-2.862 6.4-6.4 6.4zM481.95 442.159h-129.112c-3.538 0-6.4-2.862-6.4-6.4s2.862-6.4 6.4-6.4h129.112c3.538 0 6.4 2.862 6.4 6.4s-2.862 6.4-6.4 6.4zM449.675 339.759h-96.838c-3.538 0-6.4-2.862-6.4-6.4s2.862-6.4 6.4-6.4h96.838c3.538 0 6.4 2.862 6.4 6.4s-2.862 6.4-6.4 6.4zM627.2 457.184c23.162 0 42.013-18.85 42.013-42.013 0-3.538 2.862-6.4 6.4-6.4s6.4 2.862 6.4 6.4c0 28.034-21.229 50.951-48.413 54.166v30.422c0 3.538-2.862 6.4-6.4 6.4s-6.4-2.862-6.4-6.4v-30.422c-27.185-3.215-48.425-26.132-48.425-54.166 0-30.225 24.6-54.825 54.825-54.825 23.162 0 42.013-18.85 42.013-42.013s-18.85-42.012-42.013-42.012c-23.175 0-42.025 18.85-42.025 42.013 0 3.538-2.862 6.4-6.4 6.4s-6.4-2.862-6.4-6.4c0-28.034 21.24-50.951 48.425-54.166v-33.209c0-3.538 2.862-6.4 6.4-6.4s6.4 2.862 6.4 6.4v33.209c27.184 3.215 48.413 26.132 48.413 54.166 0 30.225-24.588 54.813-54.813 54.813-23.175 0-42.025 18.85-42.025 42.025 0 23.162 18.85 42.012 42.025 42.012z" />
<glyph unicode="&#xe62b;" d="M825.597 662.169v-162.975c0-3.538 2.862-6.4 6.4-6.4s6.4 2.862 6.4 6.4v166.4c0 2.137-1.069 4.137-2.85 5.325l-230.4 153.6c-0.114 0.076-0.259 0.046-0.376 0.113-0.949 0.556-1.994 0.962-3.174 0.962s-2.225-0.406-3.174-0.962c-0.117-0.067-0.262-0.038-0.376-0.113l-226.85-151.238-226.85 151.238c-1.956 1.313-4.488 1.437-6.569 0.312-2.081-1.112-3.381-3.275-3.381-5.638v-537.6c0-2.137 1.069-4.137 2.85-5.325l230.4-153.6c0.114-0.076 0.26-0.046 0.378-0.114 0.948-0.556 1.992-0.961 3.172-0.961s2.223 0.406 3.172 0.961c0.118 0.068 0.264 0.038 0.378 0.114l192 128c2.944 1.962 3.737 5.938 1.775 8.875-1.956 2.95-5.938 3.75-8.875 1.775l-182.050-121.37v522.22l217.6 145.071v-308.046c0-3.538 2.862-6.4 6.4-6.4s6.4 2.862 6.4 6.4v308.046l217.6-145.071zM147.197 807.232l217.6-145.063v-522.221l-217.6 145.071v522.212zM755.197 364.794c-31.763 0-57.6-25.837-57.6-57.6s25.837-57.6 57.6-57.6 57.6 25.837 57.6 57.6-25.837 57.6-57.6 57.6zM755.197 262.394c-24.7 0-44.8 20.1-44.8 44.8s20.1 44.8 44.8 44.8 44.8-20.1 44.8-44.8-20.1-44.8-44.8-44.8zM755.197 441.594c-74.106 0-134.4-60.287-134.4-134.4 0-72.113 124.125-227.812 129.406-234.4 1.213-1.512 3.050-2.4 4.994-2.4s3.781 0.888 4.994 2.4c5.281 6.588 129.406 162.287 129.406 234.4 0 74.113-60.294 134.4-134.4 134.4zM755.197 87.157c-23.481 30.237-121.6 160.187-121.6 220.038 0 67.050 54.55 121.6 121.6 121.6s121.6-54.55 121.6-121.6c0-59.85-98.119-189.8-121.6-220.038z" />
<glyph unicode="&#xe62c;" d="M819.2 684.794h-614.4c-39.475 0-70.4-30.925-70.4-70.4v-332.8c0-39.475 30.925-70.4 70.4-70.4h614.4c39.475 0 70.4 30.925 70.4 70.4v332.8c0 39.475-30.925 70.4-70.4 70.4zM204.8 671.994h614.4c32.3 0 57.6-25.3 57.6-57.6v-57.6h-729.6v57.6c0 32.3 25.3 57.6 57.6 57.6zM819.2 223.994h-614.4c-32.3 0-57.6 25.3-57.6 57.6v262.4h729.6v-262.4c0-32.3-25.3-57.6-57.6-57.6zM780.8 454.394h-128c-3.538 0-6.4-2.862-6.4-6.4s2.862-6.4 6.4-6.4h128c3.538 0 6.4 2.862 6.4 6.4s-2.862 6.4-6.4 6.4zM499.2 454.394h-256c-3.538 0-6.4-2.862-6.4-6.4s2.862-6.4 6.4-6.4h256c3.538 0 6.4 2.862 6.4 6.4s-2.862 6.4-6.4 6.4zM345.6 377.594h-102.4c-3.538 0-6.4-2.862-6.4-6.4s2.862-6.4 6.4-6.4h102.4c3.538 0 6.4 2.862 6.4 6.4s-2.862 6.4-6.4 6.4z" />
<glyph unicode="&#xe62d;" d="M345.597 134.394c-0.913 0-1.825 0.188-2.681 0.588-2.269 1.050-3.719 3.313-3.719 5.812v121.6h-198.4c-3.538 0-6.4 2.862-6.4 6.4v486.4c0 3.538 2.862 6.4 6.4 6.4h742.4c3.538 0 6.4-2.862 6.4-6.4v-486.4c0-3.538-2.862-6.4-6.4-6.4h-384.975l-148.475-126.475c-1.181-1-2.656-1.525-4.15-1.525zM147.197 275.194h198.4c3.538 0 6.4-2.862 6.4-6.4v-114.137l139.713 119.012c1.162 0.988 2.625 1.525 4.15 1.525h380.937v473.6h-729.6v-473.6zM592.697 620.794h-290.513c-3.538 0-6.4 2.862-6.4 6.4s2.862 6.4 6.4 6.4h290.513c3.538 0 6.4-2.862 6.4-6.4s-2.862-6.4-6.4-6.4zM721.81 516.169h-419.625c-3.538 0-6.4 2.862-6.4 6.4s2.862 6.4 6.4 6.4h419.625c3.538 0 6.4-2.862 6.4-6.4s-2.862-6.4-6.4-6.4zM721.81 415.994h-419.625c-3.538 0-6.4 2.862-6.4 6.4s2.862 6.4 6.4 6.4h419.625c3.538 0 6.4-2.862 6.4-6.4s-2.862-6.4-6.4-6.4z" />
<glyph unicode="&#xe62e;" d="M968.192 673.741c-51.507-295.526-339.2-545.792-425.728-602.931-86.579-57.139-165.478 22.886-194.15 83.456-32.768 68.966-131.021 443.238-156.774 474.163-25.702 31.078-102.912-30.925-102.912-30.925l-37.427 49.971c0 0 156.774 190.72 276.070 214.528 126.464 25.242 126.259-197.837 156.672-321.69 29.44-119.859 49.203-188.467 74.854-188.467 25.754 0 74.854 66.867 128.666 169.318 53.914 102.554-2.304 193.075-107.622 128.717 42.086 257.434 439.859 319.334 388.352 23.859z" />
<glyph unicode="&#xe62f;" d="M101.888 686.643c0-76.442 25.549-131.686 75.878-164.096 41.216-26.573 89.088-30.566 113.971-30.566 6.042 0 10.854 0.256 14.234 0.461 0 0-7.885-51.354 30.208-102.195l-1.741 0.051c-65.997 0-281.293-13.824-281.293-190.822 0-180.070 197.734-189.184 237.363-189.184 3.123 0 4.915 0.051 4.915 0.051 0.461 0 3.277-0.102 8.090-0.102 25.446 0 91.238 3.174 152.371 32.922 79.258 38.451 119.501 105.421 119.501 198.912 0 90.368-61.235 144.128-105.984 183.45-27.29 23.962-50.893 44.646-50.893 64.768 0 20.48 17.203 35.891 39.014 55.398 35.226 31.539 68.506 76.442 68.506 161.331 0 74.65-9.677 124.723-69.325 156.467 6.246 3.174 28.211 5.478 39.117 7.014 32.307 4.403 79.565 9.421 79.565 35.789v5.069h-235.418c-2.355-0.051-238.080-8.806-238.080-224.717zM481.946 225.178c4.506-71.987-57.088-125.133-149.555-131.84-93.901-6.912-171.264 35.379-175.77 107.366-2.15 34.56 13.005 68.403 42.752 95.386 30.208 27.29 71.578 44.134 116.685 47.514 5.325 0.307 10.598 0.563 15.872 0.563 86.886 0 145.766-51.098 150.016-118.989zM420.454 735.949c23.091-81.254-11.776-166.195-67.328-181.862-6.4-1.792-13.005-2.714-19.661-2.714-50.944 0-101.376 51.507-120.064 122.47-10.445 39.885-9.626 74.701 2.355 108.237 11.776 32.922 32.922 55.245 59.546 62.72 6.4 1.843 13.056 2.714 19.712 2.714 61.44 0 100.966-25.498 125.44-111.565zM817.203 559.002v153.6h-97.28v-153.6h-153.6v-97.28h153.6v-153.6h97.28v153.6h153.6v97.28h-153.6z" />
<glyph unicode="&#xe630;" d="M441.139 295.526c-26.88-140.954-59.699-276.122-156.979-346.726-30.003 213.094 44.083 373.094 78.49 542.976-58.675 98.816 7.066 297.574 130.867 248.576 152.32-60.262-131.891-367.258 58.88-405.606 199.219-40.038 280.525 345.6 157.030 470.989-178.483 181.146-519.578 4.198-477.594-255.027 10.189-63.386 75.674-82.637 26.163-170.086-114.227 25.293-148.326 115.405-143.923 235.52 7.066 196.557 176.64 334.182 346.726 353.229 215.142 24.115 417.024-78.95 444.826-281.293 31.386-228.352-97.024-475.699-327.117-457.882-62.31 4.762-88.474 35.635-137.37 65.331z" />
<glyph unicode="&#xe631;" d="M259.891 816.64c0-54.426-40.192-98.509-106.291-98.509-62.208 0-102.4 44.083-102.4 98.509 0 55.706 41.523 98.509 105.011 98.509s102.4-42.803 103.68-98.509zM56.422 6.451v633.856h197.018v-633.856h-197.018zM371.354 438.118c0 79.053-2.611 145.152-5.222 202.189h171.11l9.114-88.166h3.891c25.907 41.523 89.446 102.4 195.738 102.4 129.587 0 226.816-86.835 226.816-273.51v-374.63h-197.018v351.283c0 81.664-28.57 137.421-99.84 137.421-54.426 0-86.784-37.581-101.069-73.882-5.222-12.954-6.502-31.078-6.502-49.254v-365.568h-197.018v431.718z" />
<glyph unicode="&#xe632;" d="M312.781 926.618l-292.301-182.067 200.243-167.885 291.277 189.184-199.219 160.768zM688.742 153.907c-5.222 0-10.394 1.792-14.592 5.325l-162.15 134.451-162.15-134.502c-4.198-3.482-9.421-5.325-14.592-5.325-4.352 0-8.704 1.178-12.493 3.686l-120.115 78.592v-46.387l309.35-194.765 309.35 194.816v46.387l-120.115-78.592c-3.789-2.509-8.141-3.686-12.493-3.686zM1003.52 744.55l-292.301 182.067-199.219-160.768 291.226-189.133 200.294 167.834zM512 394.701l180.582-149.914 288.87 188.826-178.176 143.053-291.277-181.965zM331.418 244.787l180.582 149.914-291.226 182.016-178.176-143.104 288.819-188.826z" />
<glyph unicode="&#xe633;" d="M862.976 725.248c13.926-26.317 20.838-58.829 20.838-97.894 0-88.678-37.376-160.256-112.026-214.579-74.752-54.374-179.149-81.51-313.242-81.51h-31.386c-23.603 0-47.206-18.534-52.48-41.216l-37.683-160.717c-5.274-22.733-28.877-41.318-52.48-41.318h-68.71l-6.144-26.266c-5.325-22.682 9.626-41.267 33.178-41.267h110.029c23.603 0 47.258 18.534 52.429 41.267l37.734 160.768c5.325 22.579 28.877 41.165 52.48 41.165h31.386c134.093 0 238.49 27.136 313.19 81.562 74.803 54.272 112.23 125.798 112.23 214.579 0 39.066-6.912 71.578-20.838 97.843-13.875 26.112-34.099 47.411-60.467 63.642-2.816 1.69-5.12 2.355-8.038 3.942zM268.442 196.915l37.734 160.768c5.325 22.579 28.826 41.165 52.48 41.165h31.386c134.093 0 238.49 27.136 313.19 81.562 74.701 54.323 112.077 125.85 112.077 214.579 0 39.066-6.912 71.578-20.89 97.843-13.875 26.112-34.099 47.411-60.416 63.642-26.982 16.486-58.675 27.955-95.386 34.662-36.71 6.605-79.77 9.984-129.229 9.984h-229.12c-23.654 0-47.258-18.432-52.582-41.165l-154.931-662.989c-5.325-22.733 9.626-41.318 33.178-41.318h110.029c23.654 0 47.309 18.534 52.48 41.267zM358.349 581.581l33.075 140.749c5.325 22.682 28.928 41.216 52.429 41.216h36.045c41.933 0 73.779-7.066 95.078-21.094 21.35-13.926 32.051-35.379 32.051-64.512 0-43.981-16.64-77.978-49.664-101.837-33.075-23.808-79.053-35.84-138.445-35.84h-27.238c-23.654 0-38.554 18.637-33.331 41.318z" />
<glyph unicode="&#xe634;" d="M651.175 156.85c-3.275 0-6.55 1.25-9.050 3.75l-278.35 278.35c-5 5-5 13.1 0 18.1l278.35 278.35c5 5 13.1 5 18.1 0s5-13.1 0-18.1l-269.3-269.3 269.3-269.3c5-5 5-13.1 0-18.1-2.5-2.5-5.775-3.75-9.050-3.75z" />
<glyph unicode="&#xe635;" d="M372.825 739.15c3.275 0 6.55-1.25 9.050-3.75l278.35-278.35c5-5 5-13.1 0-18.1l-278.35-278.35c-5-5-13.1-5-18.1 0s-5 13.1 0 18.1l269.3 269.3-269.3 269.3c-5 5-5 13.1 0 18.1 2.5 2.5 5.775 3.75 9.050 3.75z" />
</font>
</defs>
</svg>
